M48
; DRILL file {KiCad (5.1.0)-1} date 10/04/2019 03:15:54 p.m.
; FORMAT={-:-/ absolute / metric / decimal}
; #@! TF.CreationDate,2019-04-10T15:15:54-05:00
; #@! TF.GenerationSoftware,Kicad,Pcbnew,(5.1.0)-1
; #@! TF.FileFunction,Plated,1,2,PTH
FMAT,2
METRIC
T1C0.600
T2C0.762
T3C0.800
T4C1.000
%
G90
G05
T1
X81.28Y-58.42
X81.28Y-99.06
X81.28Y-106.68
X81.28Y-114.3
X81.28Y-121.92
X90.17Y-102.87
X91.44Y-53.34
X91.44Y-121.92
X96.52Y-102.87
X102.87Y-102.87
X104.14Y-121.92
X109.22Y-53.34
X109.22Y-102.87
X114.3Y-121.92
X115.57Y-64.77
X115.57Y-77.47
X115.57Y-90.17
X115.57Y-102.87
X124.46Y-121.92
X129.54Y-58.42
X138.43Y-67.31
X138.43Y-81.28
X138.43Y-93.98
X147.32Y-111.125
X151.13Y-67.31
X180.975Y-122.555
X185.42Y-53.34
X185.42Y-64.77
X185.42Y-77.47
X185.42Y-90.17
X185.42Y-102.87
X203.2Y-53.34
X210.82Y-53.34
X210.82Y-101.6
X210.82Y-111.76
X210.82Y-121.92
T2
X114.935Y-111.125
X114.935Y-113.125
X114.935Y-115.125
X114.935Y-117.125
X97.155Y-111.125
X97.155Y-113.125
X97.155Y-115.125
X97.155Y-117.125
X174.625Y-111.125
X174.625Y-113.125
X174.625Y-115.125
X174.625Y-117.125
X123.19Y-111.125
X123.19Y-113.125
X123.19Y-115.125
X123.19Y-117.125
X87.63Y-107.315
X87.63Y-109.315
X87.63Y-111.315
X87.63Y-113.315
X87.63Y-115.315
X87.63Y-117.315
X165.1Y-111.125
X165.1Y-113.125
X165.1Y-115.125
X165.1Y-117.125
X106.235Y-111.125
X106.235Y-113.125
X106.235Y-115.125
X106.235Y-117.125
T3
X173.355Y-80.01
X173.355Y-85.09
X173.355Y-87.63
X191.135Y-80.01
X191.135Y-87.63
X101.6Y-79.756
X101.6Y-87.376
X119.38Y-79.756
X119.38Y-82.296
X119.38Y-87.376
X173.355Y-67.31
X173.355Y-72.39
X173.355Y-74.93
X191.135Y-67.31
X191.135Y-74.93
X101.6Y-92.71
X101.6Y-100.33
X119.38Y-92.71
X119.38Y-95.25
X119.38Y-100.33
X101.6Y-54.61
X101.6Y-62.23
X119.38Y-54.61
X119.38Y-57.15
X119.38Y-62.23
X173.355Y-54.61
X173.355Y-59.69
X173.355Y-62.23
X191.135Y-54.61
X191.135Y-62.23
X173.355Y-92.71
X173.355Y-97.79
X173.355Y-100.33
X191.135Y-92.71
X191.135Y-100.33
X101.6Y-67.31
X101.6Y-74.93
X119.38Y-67.31
X119.38Y-69.85
X119.38Y-74.93
T4
X137.16Y-117.475
X147.955Y-59.69
X183.515Y-106.045
X133.985Y-58.42
X133.985Y-60.96
X133.985Y-63.42
X133.985Y-66.04
X133.985Y-68.58
X133.985Y-71.12
X133.985Y-73.66
X133.985Y-76.2
X133.985Y-78.74
X133.985Y-81.28
X133.985Y-83.82
X133.985Y-86.36
X133.985Y-88.9
X133.985Y-91.44
X133.985Y-93.98
X133.985Y-96.52
X133.985Y-98.74
X133.985Y-101.6
X133.985Y-104.14
X133.985Y-106.68
X156.805Y-65.96
X156.845Y-58.42
X156.845Y-60.96
X156.845Y-63.42
X156.845Y-68.58
X156.845Y-71.12
X156.845Y-73.66
X156.845Y-76.2
X156.845Y-78.74
X156.845Y-81.28
X156.845Y-83.82
X156.845Y-86.36
X156.845Y-88.9
X156.845Y-91.44
X156.845Y-93.98
X156.845Y-96.52
X156.845Y-99.06
X156.845Y-101.6
X156.845Y-104.14
X156.845Y-106.68
X152.4Y-54.61
X154.94Y-54.61
T4
G00X199.66Y-115.57
M15
G01X201.66Y-115.57
M16
G05
G00X199.66Y-121.57
M15
G01X201.66Y-121.57
M16
G05
G00X205.36Y-119.57
M15
G01X205.36Y-117.57
M16
G05
T0
M30
