G04 #@! TF.GenerationSoftware,KiCad,Pcbnew,(5.1.0)-1*
G04 #@! TF.CreationDate,2019-04-10T15:15:50-05:00*
G04 #@! TF.ProjectId,controlLED,636f6e74-726f-46c4-9c45-442e6b696361,rev?*
G04 #@! TF.SameCoordinates,Original*
G04 #@! TF.FileFunction,Copper,L1,Top*
G04 #@! TF.FilePolarity,Positive*
%FSLAX46Y46*%
G04 Gerber Fmt 4.6, Leading zero omitted, Abs format (unit mm)*
G04 Created by KiCad (PCBNEW (5.1.0)-1) date 2019-04-10 15:15:50*
%MOMM*%
%LPD*%
G04 APERTURE LIST*
%ADD10R,3.500000X3.500000*%
%ADD11R,1.700000X1.700000*%
%ADD12O,1.700000X1.700000*%
%ADD13R,1.000000X1.600000*%
%ADD14C,1.300000*%
%ADD15R,1.300000X1.300000*%
%ADD16R,3.800000X2.000000*%
%ADD17R,1.500000X2.000000*%
%ADD18R,1.600000X1.000000*%
%ADD19R,2.000000X1.700000*%
%ADD20R,3.500000X2.000000*%
%ADD21R,6.000000X2.000000*%
%ADD22R,2.000000X3.500000*%
%ADD23R,2.000000X6.000000*%
%ADD24C,1.524000*%
%ADD25R,2.000000X2.500000*%
%ADD26C,2.000000*%
%ADD27C,1.000000*%
%ADD28C,1.000000*%
%ADD29C,2.000000*%
G04 APERTURE END LIST*
D10*
X200660000Y-115570000D03*
X200660000Y-121570000D03*
X205360000Y-118570000D03*
D11*
X133985000Y-58420000D03*
D12*
X133985000Y-60960000D03*
X133985000Y-63420000D03*
X133985000Y-66040000D03*
X133985000Y-68580000D03*
X133985000Y-71120000D03*
X133985000Y-73660000D03*
X133985000Y-76200000D03*
X133985000Y-78740000D03*
X133985000Y-81280000D03*
X133985000Y-83820000D03*
X133985000Y-86360000D03*
X133985000Y-88900000D03*
X133985000Y-91440000D03*
X133985000Y-93980000D03*
X133985000Y-96520000D03*
X133985000Y-98740000D03*
X133985000Y-101600000D03*
X133985000Y-104140000D03*
X133985000Y-106680000D03*
X156845000Y-58420000D03*
X156845000Y-60960000D03*
X156845000Y-63420000D03*
X156805000Y-65960000D03*
X156845000Y-68580000D03*
X156845000Y-71120000D03*
X156845000Y-73660000D03*
X156845000Y-76200000D03*
X156845000Y-78740000D03*
X156845000Y-81280000D03*
X156845000Y-83820000D03*
X156845000Y-86360000D03*
X156845000Y-88900000D03*
X156845000Y-91440000D03*
X156845000Y-93980000D03*
X156845000Y-96520000D03*
X156845000Y-99060000D03*
X156845000Y-101600000D03*
X156845000Y-104140000D03*
X156845000Y-106680000D03*
D13*
X142470000Y-69215000D03*
X139470000Y-69215000D03*
D14*
X119380000Y-92710000D03*
D15*
X119380000Y-100330000D03*
D14*
X101600000Y-92710000D03*
X101600000Y-100330000D03*
X119380000Y-95250000D03*
X173355000Y-62230000D03*
D15*
X173355000Y-54610000D03*
D14*
X191135000Y-62230000D03*
X191135000Y-54610000D03*
X173355000Y-59690000D03*
D16*
X147320000Y-119990000D03*
D17*
X147320000Y-113690000D03*
X145020000Y-113690000D03*
X149620000Y-113690000D03*
D13*
X145820000Y-69215000D03*
X148820000Y-69215000D03*
X145820000Y-64770000D03*
X148820000Y-64770000D03*
X142470000Y-64770000D03*
X139470000Y-64770000D03*
D18*
X134620000Y-114070000D03*
X134620000Y-117070000D03*
X139700000Y-114070000D03*
X139700000Y-117070000D03*
D13*
X145820000Y-101600000D03*
X148820000Y-101600000D03*
X145820000Y-106680000D03*
X148820000Y-106680000D03*
D19*
X167100000Y-54610000D03*
X163100000Y-54610000D03*
D20*
X199012000Y-62135000D03*
D21*
X208262000Y-62135000D03*
D20*
X199012000Y-66135000D03*
D21*
X208262000Y-66135000D03*
D20*
X199012000Y-71025000D03*
D21*
X208262000Y-71025000D03*
D20*
X199012000Y-75025000D03*
D21*
X208262000Y-75025000D03*
D20*
X199012000Y-79915000D03*
D21*
X208262000Y-79915000D03*
D20*
X199012000Y-83915000D03*
D21*
X208262000Y-83915000D03*
D20*
X199012000Y-89440000D03*
D21*
X208262000Y-89440000D03*
D20*
X199012000Y-93440000D03*
D21*
X208262000Y-93440000D03*
D20*
X92453000Y-93440000D03*
D21*
X83203000Y-93440000D03*
D20*
X92453000Y-89440000D03*
D21*
X83203000Y-89440000D03*
D20*
X92435000Y-84010000D03*
D21*
X83185000Y-84010000D03*
D20*
X92435000Y-80010000D03*
D21*
X83185000Y-80010000D03*
D20*
X92453000Y-75025000D03*
D21*
X83203000Y-75025000D03*
D20*
X92453000Y-71025000D03*
D21*
X83203000Y-71025000D03*
D22*
X188690000Y-113287000D03*
D23*
X188690000Y-122537000D03*
D22*
X184690000Y-113287000D03*
D23*
X184690000Y-122537000D03*
D24*
X174625000Y-111125000D03*
X174625000Y-113125000D03*
X174625000Y-115125000D03*
X174625000Y-117125000D03*
X114935000Y-111125000D03*
X114935000Y-113125000D03*
X114935000Y-115125000D03*
X114935000Y-117125000D03*
X165100000Y-111125000D03*
X165100000Y-113125000D03*
X165100000Y-115125000D03*
X165100000Y-117125000D03*
X123190000Y-111125000D03*
X123190000Y-113125000D03*
X123190000Y-115125000D03*
X123190000Y-117125000D03*
X97155000Y-111125000D03*
X97155000Y-113125000D03*
X97155000Y-115125000D03*
X97155000Y-117125000D03*
X106235000Y-111125000D03*
X106235000Y-113125000D03*
X106235000Y-115125000D03*
X106235000Y-117125000D03*
X87630000Y-107315000D03*
X87630000Y-109315000D03*
X87630000Y-111315000D03*
X87630000Y-113315000D03*
X87630000Y-115315000D03*
X87630000Y-117315000D03*
D11*
X152400000Y-54610000D03*
D12*
X154940000Y-54610000D03*
D14*
X173355000Y-74930000D03*
D15*
X173355000Y-67310000D03*
D14*
X191135000Y-74930000D03*
X191135000Y-67310000D03*
X173355000Y-72390000D03*
X173355000Y-87630000D03*
D15*
X173355000Y-80010000D03*
D14*
X191135000Y-87630000D03*
X191135000Y-80010000D03*
X173355000Y-85090000D03*
X173355000Y-100330000D03*
D15*
X173355000Y-92710000D03*
D14*
X191135000Y-100330000D03*
X191135000Y-92710000D03*
X173355000Y-97790000D03*
X119380000Y-79756000D03*
D15*
X119380000Y-87376000D03*
D14*
X101600000Y-79756000D03*
X101600000Y-87376000D03*
X119380000Y-82296000D03*
X119380000Y-67310000D03*
D15*
X119380000Y-74930000D03*
D14*
X101600000Y-67310000D03*
X101600000Y-74930000D03*
X119380000Y-69850000D03*
X119380000Y-54610000D03*
D15*
X119380000Y-62230000D03*
D14*
X101600000Y-54610000D03*
X101600000Y-62230000D03*
X119380000Y-57150000D03*
D25*
X165735000Y-59690000D03*
X161735000Y-59690000D03*
D16*
X142480000Y-53390000D03*
D17*
X142480000Y-59690000D03*
X144780000Y-59690000D03*
X140180000Y-59690000D03*
D20*
X92453000Y-66135000D03*
D21*
X83203000Y-66135000D03*
D20*
X92453000Y-62135000D03*
D21*
X83203000Y-62135000D03*
D26*
X183515000Y-106045000D03*
X147955012Y-59690000D03*
X137160000Y-117475000D03*
D27*
X210820000Y-53340000D03*
X203200000Y-53340000D03*
X185420000Y-53340000D03*
X109220000Y-53340000D03*
X91440000Y-53340000D03*
X81280000Y-58420000D03*
X81280000Y-99060000D03*
X81280000Y-106680000D03*
X81280000Y-114300000D03*
X81280000Y-121920000D03*
X91440000Y-121920000D03*
X104140000Y-121920000D03*
X114300000Y-121920000D03*
X124460000Y-121920000D03*
X180975000Y-122555000D03*
X210820000Y-121920000D03*
X210820000Y-111760000D03*
X210820000Y-101600000D03*
X151130000Y-67310000D03*
X138430000Y-67310000D03*
X138430000Y-81280000D03*
X138430000Y-93980000D03*
X129540000Y-58420000D03*
X115570000Y-64770000D03*
X115570000Y-77470000D03*
X115570000Y-90170000D03*
X115570000Y-102870000D03*
X185420000Y-64770000D03*
X185420000Y-77470000D03*
X185420000Y-90170000D03*
X185420000Y-102870000D03*
X109220000Y-102870000D03*
X102870000Y-102870000D03*
X96520000Y-102870000D03*
X90170000Y-102870000D03*
X147320000Y-111125000D03*
D28*
X140080000Y-113690000D02*
X139700000Y-114070000D01*
X139700000Y-114070000D02*
X134620000Y-114070000D01*
X142646000Y-113690000D02*
X140080000Y-113690000D01*
X145020000Y-113690000D02*
X142646000Y-113690000D01*
D29*
X188690000Y-113287000D02*
X188690000Y-122537000D01*
D28*
X144640000Y-114070000D02*
X145020000Y-113690000D01*
X139700000Y-114070000D02*
X144640000Y-114070000D01*
X179070000Y-110490000D02*
X183515000Y-106045000D01*
X179070000Y-116994000D02*
X179070000Y-110490000D01*
X132820000Y-114070000D02*
X131445000Y-115445000D01*
X134620000Y-114070000D02*
X132820000Y-114070000D01*
X131445000Y-115445000D02*
X131445000Y-120015000D01*
X131445000Y-120015000D02*
X135078000Y-123648000D01*
X135078000Y-123648000D02*
X172416000Y-123648000D01*
X172416000Y-123648000D02*
X179070000Y-116994000D01*
X144780000Y-59690000D02*
X147955012Y-59690000D01*
X145820000Y-63000000D02*
X145820000Y-69215000D01*
X144780000Y-61960000D02*
X145820000Y-63000000D01*
X144780000Y-59690000D02*
X144780000Y-61960000D01*
D29*
X200660000Y-113030000D02*
X200660000Y-115570000D01*
X200025000Y-112395000D02*
X200660000Y-113030000D01*
X188690000Y-113287000D02*
X189582000Y-112395000D01*
X189582000Y-112395000D02*
X200025000Y-112395000D01*
D28*
X184690000Y-110537000D02*
X189182000Y-106045000D01*
X184690000Y-113287000D02*
X184690000Y-110537000D01*
X189182000Y-106045000D02*
X201295000Y-106045000D01*
X205360000Y-110110000D02*
X205360000Y-118570000D01*
X201295000Y-106045000D02*
X205360000Y-110110000D01*
X203660000Y-118570000D02*
X200660000Y-121570000D01*
X205360000Y-118570000D02*
X203660000Y-118570000D01*
X182690000Y-113287000D02*
X180975000Y-115002000D01*
X184690000Y-113287000D02*
X182690000Y-113287000D01*
X180975000Y-115002000D02*
X180975000Y-122555000D01*
X138660000Y-118110000D02*
X139700000Y-117070000D01*
X137160000Y-118110000D02*
X138660000Y-118110000D01*
X135660000Y-118110000D02*
X134620000Y-117070000D01*
X137160000Y-118110000D02*
X135660000Y-118110000D01*
X139700000Y-117070000D02*
X148995000Y-117070000D01*
X149620000Y-116445000D02*
X149620000Y-113690000D01*
X148995000Y-117070000D02*
X149620000Y-116445000D01*
X165100000Y-117125000D02*
X159035000Y-117125000D01*
X155600000Y-113690000D02*
X149620000Y-113690000D01*
X159035000Y-117125000D02*
X155600000Y-113690000D01*
X184690000Y-113287000D02*
X184690000Y-122537000D01*
X148820000Y-101600000D02*
X148820000Y-106680000D01*
X149620000Y-107480000D02*
X148820000Y-106680000D01*
X149620000Y-113690000D02*
X149620000Y-107480000D01*
X137565000Y-117070000D02*
X137160000Y-117475000D01*
X139700000Y-117070000D02*
X137565000Y-117070000D01*
X135025000Y-117475000D02*
X134620000Y-117070000D01*
X137160000Y-117475000D02*
X135025000Y-117475000D01*
X148820000Y-69215000D02*
X148820000Y-64770000D01*
X139470000Y-69215000D02*
X139470000Y-64770000D01*
X139470000Y-60400000D02*
X140180000Y-59690000D01*
X139470000Y-64770000D02*
X139470000Y-60400000D01*
X180975000Y-122555000D02*
X180975000Y-122555000D01*
X142480000Y-64760000D02*
X142470000Y-64770000D01*
X142480000Y-59690000D02*
X142480000Y-64760000D01*
X142470000Y-69215000D02*
X142470000Y-64770000D01*
X142470000Y-72620000D02*
X142470000Y-69215000D01*
X152400000Y-56460000D02*
X153670000Y-57730000D01*
X152400000Y-54610000D02*
X152400000Y-56460000D01*
X153670000Y-57730000D02*
X153670000Y-71755000D01*
X153670000Y-71755000D02*
X150495000Y-74930000D01*
X150495000Y-74930000D02*
X144780000Y-74930000D01*
X144780000Y-74930000D02*
X142470000Y-72620000D01*
X145820000Y-101600000D02*
X145820000Y-106680000D01*
X147320000Y-112979998D02*
X147320000Y-111125000D01*
X147320000Y-113690000D02*
X147320000Y-112979998D01*
X145820000Y-106680000D02*
X145820000Y-109625000D01*
X145820000Y-109625000D02*
X147320000Y-111125000D01*
X163100000Y-54610000D02*
X163195000Y-54610000D01*
X165735000Y-57150000D02*
X165735000Y-59690000D01*
X163195000Y-54610000D02*
X165735000Y-57150000D01*
D29*
X208262000Y-62135000D02*
X199012000Y-62135000D01*
X199012000Y-59514033D02*
X199012000Y-62135000D01*
X191135000Y-54610000D02*
X194107967Y-54610000D01*
X194107967Y-54610000D02*
X199012000Y-59514033D01*
X199012000Y-66135000D02*
X208262000Y-66135000D01*
X195040000Y-66135000D02*
X191135000Y-62230000D01*
X199012000Y-66135000D02*
X195040000Y-66135000D01*
X199012000Y-71025000D02*
X208262000Y-71025000D01*
X194850000Y-71025000D02*
X191135000Y-67310000D01*
X199012000Y-71025000D02*
X194850000Y-71025000D01*
X208262000Y-75025000D02*
X199012000Y-75025000D01*
X191230000Y-75025000D02*
X191135000Y-74930000D01*
X199012000Y-75025000D02*
X191230000Y-75025000D01*
X208262000Y-79915000D02*
X199012000Y-79915000D01*
X191230000Y-79915000D02*
X191135000Y-80010000D01*
X199012000Y-79915000D02*
X191230000Y-79915000D01*
X208262000Y-83915000D02*
X199012000Y-83915000D01*
X194850000Y-83915000D02*
X191135000Y-87630000D01*
X199012000Y-83915000D02*
X194850000Y-83915000D01*
X208262000Y-89440000D02*
X199012000Y-89440000D01*
X194405000Y-89440000D02*
X191135000Y-92710000D01*
X199012000Y-89440000D02*
X194405000Y-89440000D01*
X208262000Y-93440000D02*
X199012000Y-93440000D01*
X199012000Y-96440000D02*
X195122000Y-100330000D01*
X199012000Y-93440000D02*
X199012000Y-96440000D01*
X195122000Y-100330000D02*
X191135000Y-100330000D01*
X83203000Y-93440000D02*
X92453000Y-93440000D01*
X100965000Y-100330000D02*
X101600000Y-100330000D01*
X92453000Y-93440000D02*
X94075000Y-93440000D01*
X94075000Y-93440000D02*
X100965000Y-100330000D01*
X83203000Y-89440000D02*
X92453000Y-89440000D01*
X100330000Y-92710000D02*
X101600000Y-92710000D01*
X92453000Y-89440000D02*
X97060000Y-89440000D01*
X97060000Y-89440000D02*
X100330000Y-92710000D01*
X83185000Y-84010000D02*
X92435000Y-84010000D01*
X101600000Y-87376000D02*
X100584000Y-87376000D01*
X97218000Y-84010000D02*
X92435000Y-84010000D01*
X100584000Y-87376000D02*
X97218000Y-84010000D01*
X83185000Y-80010000D02*
X92435000Y-80010000D01*
X101346000Y-80010000D02*
X101600000Y-79756000D01*
X92435000Y-80010000D02*
X101346000Y-80010000D01*
X92453000Y-75025000D02*
X83203000Y-75025000D01*
X101505000Y-75025000D02*
X101600000Y-74930000D01*
X92453000Y-75025000D02*
X101505000Y-75025000D01*
X92453000Y-71025000D02*
X83203000Y-71025000D01*
X97885000Y-71025000D02*
X101600000Y-67310000D01*
X92453000Y-71025000D02*
X97885000Y-71025000D01*
X92453000Y-66135000D02*
X83203000Y-66135000D01*
X97695000Y-66135000D02*
X101600000Y-62230000D01*
X92453000Y-66135000D02*
X97695000Y-66135000D01*
X92453000Y-62135000D02*
X83203000Y-62135000D01*
X94075000Y-62135000D02*
X101600000Y-54610000D01*
X92453000Y-62135000D02*
X94075000Y-62135000D01*
D28*
X161735000Y-56960000D02*
X161735000Y-59690000D01*
X154940000Y-54610000D02*
X159385000Y-54610000D01*
X159385000Y-54610000D02*
X161735000Y-56960000D01*
X89535000Y-105410000D02*
X87630000Y-107315000D01*
X120015000Y-105410000D02*
X89535000Y-105410000D01*
X123825000Y-101600000D02*
X120015000Y-105410000D01*
X123825000Y-87630000D02*
X123825000Y-101600000D01*
X133985000Y-81280000D02*
X130175000Y-81280000D01*
X130175000Y-81280000D02*
X123825000Y-87630000D01*
X88707630Y-109315000D02*
X87630000Y-109315000D01*
X90075000Y-109315000D02*
X88707630Y-109315000D01*
X130175000Y-88900000D02*
X125025011Y-94049989D01*
X133985000Y-88900000D02*
X130175000Y-88900000D01*
X125025011Y-102097060D02*
X120512060Y-106610011D01*
X125025011Y-94049989D02*
X125025011Y-102097060D01*
X120512060Y-106610011D02*
X92779989Y-106610011D01*
X92779989Y-106610011D02*
X90075000Y-109315000D01*
X89885000Y-113315000D02*
X87630000Y-113315000D01*
X130175000Y-91440000D02*
X126225022Y-95389978D01*
X133985000Y-91440000D02*
X130175000Y-91440000D01*
X121009120Y-107810022D02*
X95389978Y-107810022D01*
X126225022Y-95389978D02*
X126225022Y-102594120D01*
X126225022Y-102594120D02*
X121009120Y-107810022D01*
X95389978Y-107810022D02*
X89885000Y-113315000D01*
X108140000Y-109220000D02*
X106235000Y-111125000D01*
X121296213Y-109220000D02*
X108140000Y-109220000D01*
X127635000Y-102881213D02*
X121296213Y-109220000D01*
X127635000Y-99060000D02*
X127635000Y-102881213D01*
X133985000Y-96520000D02*
X130175000Y-96520000D01*
X130175000Y-96520000D02*
X127635000Y-99060000D01*
G36*
X139187476Y-51813198D02*
G01*
X139101705Y-52095949D01*
X139072743Y-52390000D01*
X139072743Y-54390000D01*
X139101705Y-54684051D01*
X139187476Y-54966802D01*
X139326762Y-55227387D01*
X139514208Y-55455792D01*
X139742613Y-55643238D01*
X140003198Y-55782524D01*
X140285949Y-55868295D01*
X140580000Y-55897257D01*
X144380000Y-55897257D01*
X144674051Y-55868295D01*
X144956802Y-55782524D01*
X145217387Y-55643238D01*
X145445792Y-55455792D01*
X145633238Y-55227387D01*
X145772524Y-54966802D01*
X145858295Y-54684051D01*
X145887257Y-54390000D01*
X145887257Y-52390000D01*
X145858295Y-52095949D01*
X145772524Y-51813198D01*
X145720036Y-51715000D01*
X212445000Y-51715000D01*
X212445000Y-59190000D01*
X202430000Y-59190000D01*
X202430000Y-58420000D01*
X202420393Y-58322455D01*
X202391940Y-58228658D01*
X202345735Y-58142215D01*
X202283553Y-58066447D01*
X197203553Y-52986447D01*
X197127785Y-52924265D01*
X197041342Y-52878060D01*
X196947545Y-52849607D01*
X196850000Y-52840000D01*
X195889474Y-52840000D01*
X195884287Y-52833680D01*
X195503613Y-52521269D01*
X195069305Y-52289126D01*
X194598053Y-52146173D01*
X194230780Y-52110000D01*
X194230770Y-52110000D01*
X194107967Y-52097905D01*
X193985164Y-52110000D01*
X191012187Y-52110000D01*
X190644914Y-52146173D01*
X190173662Y-52289126D01*
X189739354Y-52521269D01*
X189358680Y-52833680D01*
X189353493Y-52840000D01*
X187960000Y-52840000D01*
X187862455Y-52849607D01*
X187768658Y-52878060D01*
X187682215Y-52924265D01*
X187606447Y-52986447D01*
X187544265Y-53062215D01*
X187498060Y-53148658D01*
X187469607Y-53242455D01*
X187460000Y-53340000D01*
X187460000Y-103505000D01*
X187469607Y-103602545D01*
X187498060Y-103696342D01*
X187544265Y-103782785D01*
X187606447Y-103858553D01*
X187682215Y-103920735D01*
X187768658Y-103966940D01*
X187862455Y-103995393D01*
X187960000Y-104005000D01*
X196215000Y-104005000D01*
X196312545Y-103995393D01*
X196406342Y-103966940D01*
X196492785Y-103920735D01*
X196568553Y-103858553D01*
X202772106Y-97655000D01*
X212445001Y-97655000D01*
X212445001Y-124180000D01*
X191197257Y-124180000D01*
X191197257Y-119537000D01*
X191190000Y-119463320D01*
X191190000Y-115110680D01*
X191197257Y-115037000D01*
X191197257Y-114895000D01*
X197402743Y-114895000D01*
X197402743Y-117320000D01*
X197431705Y-117614051D01*
X197517476Y-117896802D01*
X197656762Y-118157387D01*
X197844208Y-118385792D01*
X198072613Y-118573238D01*
X198333198Y-118712524D01*
X198615949Y-118798295D01*
X198910000Y-118827257D01*
X202410000Y-118827257D01*
X202704051Y-118798295D01*
X202986802Y-118712524D01*
X203247387Y-118573238D01*
X203475792Y-118385792D01*
X203663238Y-118157387D01*
X203802524Y-117896802D01*
X203888295Y-117614051D01*
X203917257Y-117320000D01*
X203917257Y-113820000D01*
X203888295Y-113525949D01*
X203802524Y-113243198D01*
X203663238Y-112982613D01*
X203475792Y-112754208D01*
X203247387Y-112566762D01*
X203109636Y-112493132D01*
X202980874Y-112068662D01*
X202788298Y-111708378D01*
X202748732Y-111634355D01*
X202584027Y-111433662D01*
X202436320Y-111253680D01*
X202340923Y-111175390D01*
X201879612Y-110714079D01*
X201801320Y-110618680D01*
X201420646Y-110306269D01*
X200986338Y-110074126D01*
X200515086Y-109931173D01*
X200147813Y-109895000D01*
X200147803Y-109895000D01*
X200025000Y-109882905D01*
X199902197Y-109895000D01*
X189704802Y-109895000D01*
X189581999Y-109882905D01*
X189459196Y-109895000D01*
X189459187Y-109895000D01*
X189091914Y-109931173D01*
X188766973Y-110029743D01*
X187690000Y-110029743D01*
X187395949Y-110058705D01*
X187113198Y-110144476D01*
X186852613Y-110283762D01*
X186624208Y-110471208D01*
X186436762Y-110699613D01*
X186297476Y-110960198D01*
X186211705Y-111242949D01*
X186182743Y-111537000D01*
X186182743Y-113237879D01*
X186177905Y-113287000D01*
X186182743Y-113336121D01*
X186182743Y-115037000D01*
X186190000Y-115110682D01*
X186190001Y-119463313D01*
X186182743Y-119537000D01*
X186182743Y-124180000D01*
X174712426Y-124180000D01*
X180414740Y-118477687D01*
X180491056Y-118415056D01*
X180740985Y-118110517D01*
X180926699Y-117763070D01*
X181041062Y-117386069D01*
X181070000Y-117092253D01*
X181070000Y-117092244D01*
X181079676Y-116994001D01*
X181070000Y-116895758D01*
X181070000Y-111318426D01*
X183863837Y-108524590D01*
X184244223Y-108448926D01*
X184699194Y-108260471D01*
X185108657Y-107986876D01*
X185456876Y-107638657D01*
X185730471Y-107229194D01*
X185918926Y-106774223D01*
X186015000Y-106291228D01*
X186015000Y-105798772D01*
X185918926Y-105315777D01*
X185730471Y-104860806D01*
X185456876Y-104451343D01*
X185108657Y-104103124D01*
X184699194Y-103829529D01*
X184244223Y-103641074D01*
X183761228Y-103545000D01*
X183268772Y-103545000D01*
X182785777Y-103641074D01*
X182330806Y-103829529D01*
X181921343Y-104103124D01*
X181573124Y-104451343D01*
X181299529Y-104860806D01*
X181111074Y-105315777D01*
X181035410Y-105696163D01*
X177725261Y-109006313D01*
X177648945Y-109068944D01*
X177586314Y-109145260D01*
X177586312Y-109145262D01*
X177399015Y-109373484D01*
X177213301Y-109720931D01*
X177136290Y-109974801D01*
X177123469Y-110017069D01*
X177098939Y-110097932D01*
X177060324Y-110490000D01*
X177070001Y-110588253D01*
X177070000Y-116165573D01*
X171587574Y-121648000D01*
X150569123Y-121648000D01*
X150612524Y-121566802D01*
X150698295Y-121284051D01*
X150727257Y-120990000D01*
X150727257Y-118990000D01*
X150698295Y-118695949D01*
X150612524Y-118413198D01*
X150473238Y-118152613D01*
X150285792Y-117924208D01*
X150057387Y-117736762D01*
X149796802Y-117597476D01*
X149514051Y-117511705D01*
X149220000Y-117482743D01*
X145420000Y-117482743D01*
X145125949Y-117511705D01*
X144843198Y-117597476D01*
X144582613Y-117736762D01*
X144354208Y-117924208D01*
X144166762Y-118152613D01*
X144027476Y-118413198D01*
X143941705Y-118695949D01*
X143912743Y-118990000D01*
X143912743Y-120990000D01*
X143941705Y-121284051D01*
X144027476Y-121566802D01*
X144070877Y-121648000D01*
X135906428Y-121648000D01*
X133445000Y-119186574D01*
X133445000Y-116273426D01*
X133648427Y-116070000D01*
X133746320Y-116070000D01*
X133820000Y-116077257D01*
X135420000Y-116077257D01*
X135493680Y-116070000D01*
X138826320Y-116070000D01*
X138900000Y-116077257D01*
X139675439Y-116077257D01*
X139700000Y-116079676D01*
X139724561Y-116077257D01*
X140500000Y-116077257D01*
X140573680Y-116070000D01*
X143669767Y-116070000D01*
X143693198Y-116082524D01*
X143975949Y-116168295D01*
X144270000Y-116197257D01*
X145770000Y-116197257D01*
X146064051Y-116168295D01*
X146170000Y-116136156D01*
X146275949Y-116168295D01*
X146570000Y-116197257D01*
X148070000Y-116197257D01*
X148364051Y-116168295D01*
X148646802Y-116082524D01*
X148907387Y-115943238D01*
X149135792Y-115755792D01*
X149323238Y-115527387D01*
X149462524Y-115266802D01*
X149548295Y-114984051D01*
X149577257Y-114690000D01*
X149577257Y-112690000D01*
X149548295Y-112395949D01*
X149462524Y-112113198D01*
X149323238Y-111852613D01*
X149320000Y-111848667D01*
X149320000Y-111223242D01*
X149329676Y-111124999D01*
X149320000Y-111026756D01*
X149320000Y-110928017D01*
X149314867Y-110902212D01*
X162838000Y-110902212D01*
X162838000Y-111347788D01*
X162924927Y-111784801D01*
X163065842Y-112125000D01*
X162924927Y-112465199D01*
X162838000Y-112902212D01*
X162838000Y-113347788D01*
X162924927Y-113784801D01*
X163065842Y-114125000D01*
X162924927Y-114465199D01*
X162838000Y-114902212D01*
X162838000Y-115347788D01*
X162924927Y-115784801D01*
X163095441Y-116196459D01*
X163342990Y-116566941D01*
X163658059Y-116882010D01*
X164028541Y-117129559D01*
X164440199Y-117300073D01*
X164877212Y-117387000D01*
X165322788Y-117387000D01*
X165759801Y-117300073D01*
X166171459Y-117129559D01*
X166541941Y-116882010D01*
X166857010Y-116566941D01*
X167104559Y-116196459D01*
X167275073Y-115784801D01*
X167362000Y-115347788D01*
X167362000Y-114902212D01*
X167275073Y-114465199D01*
X167134158Y-114125000D01*
X167275073Y-113784801D01*
X167362000Y-113347788D01*
X167362000Y-112902212D01*
X167275073Y-112465199D01*
X167134158Y-112125000D01*
X167275073Y-111784801D01*
X167362000Y-111347788D01*
X167362000Y-110902212D01*
X172363000Y-110902212D01*
X172363000Y-111347788D01*
X172449927Y-111784801D01*
X172590842Y-112125000D01*
X172449927Y-112465199D01*
X172363000Y-112902212D01*
X172363000Y-113347788D01*
X172449927Y-113784801D01*
X172590842Y-114125000D01*
X172449927Y-114465199D01*
X172363000Y-114902212D01*
X172363000Y-115347788D01*
X172449927Y-115784801D01*
X172620441Y-116196459D01*
X172867990Y-116566941D01*
X173183059Y-116882010D01*
X173553541Y-117129559D01*
X173965199Y-117300073D01*
X174402212Y-117387000D01*
X174847788Y-117387000D01*
X175284801Y-117300073D01*
X175696459Y-117129559D01*
X176066941Y-116882010D01*
X176382010Y-116566941D01*
X176629559Y-116196459D01*
X176800073Y-115784801D01*
X176887000Y-115347788D01*
X176887000Y-114902212D01*
X176800073Y-114465199D01*
X176659158Y-114125000D01*
X176800073Y-113784801D01*
X176887000Y-113347788D01*
X176887000Y-112902212D01*
X176800073Y-112465199D01*
X176659158Y-112125000D01*
X176800073Y-111784801D01*
X176887000Y-111347788D01*
X176887000Y-110902212D01*
X176800073Y-110465199D01*
X176629559Y-110053541D01*
X176382010Y-109683059D01*
X176066941Y-109367990D01*
X175696459Y-109120441D01*
X175284801Y-108949927D01*
X174847788Y-108863000D01*
X174402212Y-108863000D01*
X173965199Y-108949927D01*
X173553541Y-109120441D01*
X173183059Y-109367990D01*
X172867990Y-109683059D01*
X172620441Y-110053541D01*
X172449927Y-110465199D01*
X172363000Y-110902212D01*
X167362000Y-110902212D01*
X167275073Y-110465199D01*
X167104559Y-110053541D01*
X166857010Y-109683059D01*
X166541941Y-109367990D01*
X166171459Y-109120441D01*
X165759801Y-108949927D01*
X165322788Y-108863000D01*
X164877212Y-108863000D01*
X164440199Y-108949927D01*
X164028541Y-109120441D01*
X163658059Y-109367990D01*
X163342990Y-109683059D01*
X163095441Y-110053541D01*
X162924927Y-110465199D01*
X162838000Y-110902212D01*
X149314867Y-110902212D01*
X149300739Y-110831187D01*
X149291062Y-110732931D01*
X149262402Y-110638451D01*
X149243141Y-110541622D01*
X149205358Y-110450407D01*
X149176699Y-110355930D01*
X149130160Y-110268862D01*
X149092377Y-110177645D01*
X149037525Y-110095553D01*
X148990985Y-110008483D01*
X148928353Y-109932166D01*
X148873501Y-109850074D01*
X148803687Y-109780260D01*
X148741056Y-109703944D01*
X148664740Y-109641313D01*
X148594926Y-109571499D01*
X147820000Y-108796574D01*
X147820000Y-107553680D01*
X147827257Y-107480000D01*
X147827257Y-105880000D01*
X147820000Y-105806320D01*
X147820000Y-102473680D01*
X147827257Y-102400000D01*
X147827257Y-100800000D01*
X147798295Y-100505949D01*
X147712524Y-100223198D01*
X147573238Y-99962613D01*
X147385792Y-99734208D01*
X147157387Y-99546762D01*
X146896802Y-99407476D01*
X146614051Y-99321705D01*
X146320000Y-99292743D01*
X145320000Y-99292743D01*
X145025949Y-99321705D01*
X144743198Y-99407476D01*
X144482613Y-99546762D01*
X144254208Y-99734208D01*
X144066762Y-99962613D01*
X143927476Y-100223198D01*
X143841705Y-100505949D01*
X143812743Y-100800000D01*
X143812743Y-102400000D01*
X143820000Y-102473682D01*
X143820001Y-105806311D01*
X143812743Y-105880000D01*
X143812743Y-107480000D01*
X143820000Y-107553683D01*
X143820001Y-109526748D01*
X143810324Y-109625000D01*
X143820001Y-109723253D01*
X143848939Y-110017069D01*
X143873469Y-110097932D01*
X143963301Y-110394069D01*
X144149015Y-110741516D01*
X144302073Y-110928017D01*
X144398945Y-111046056D01*
X144475261Y-111108687D01*
X144549317Y-111182743D01*
X144270000Y-111182743D01*
X143975949Y-111211705D01*
X143693198Y-111297476D01*
X143432613Y-111436762D01*
X143204208Y-111624208D01*
X143150214Y-111690000D01*
X140178242Y-111690000D01*
X140079999Y-111680324D01*
X139981756Y-111690000D01*
X139981747Y-111690000D01*
X139687931Y-111718938D01*
X139310930Y-111833301D01*
X138963483Y-112019015D01*
X138910200Y-112062743D01*
X138900000Y-112062743D01*
X138826320Y-112070000D01*
X135493680Y-112070000D01*
X135420000Y-112062743D01*
X133820000Y-112062743D01*
X133746320Y-112070000D01*
X132918243Y-112070000D01*
X132820000Y-112060324D01*
X132721757Y-112070000D01*
X132721747Y-112070000D01*
X132427931Y-112098938D01*
X132058753Y-112210928D01*
X132050930Y-112213301D01*
X131703483Y-112399014D01*
X131490893Y-112573483D01*
X131398944Y-112648944D01*
X131336313Y-112725261D01*
X130100265Y-113961309D01*
X130023944Y-114023944D01*
X129774015Y-114328483D01*
X129588301Y-114675931D01*
X129473938Y-115052932D01*
X129445000Y-115346748D01*
X129445000Y-115346757D01*
X129435324Y-115445000D01*
X129445000Y-115543243D01*
X129445001Y-119916747D01*
X129435324Y-120015000D01*
X129473939Y-120407068D01*
X129588301Y-120784069D01*
X129774015Y-121131516D01*
X129899198Y-121284051D01*
X130023945Y-121436056D01*
X130100261Y-121498687D01*
X132781573Y-124180000D01*
X79655000Y-124180000D01*
X79655000Y-107092212D01*
X85368000Y-107092212D01*
X85368000Y-107537788D01*
X85454927Y-107974801D01*
X85595842Y-108315000D01*
X85454927Y-108655199D01*
X85368000Y-109092212D01*
X85368000Y-109537788D01*
X85454927Y-109974801D01*
X85595842Y-110315000D01*
X85454927Y-110655199D01*
X85368000Y-111092212D01*
X85368000Y-111537788D01*
X85454927Y-111974801D01*
X85595842Y-112315000D01*
X85454927Y-112655199D01*
X85368000Y-113092212D01*
X85368000Y-113537788D01*
X85454927Y-113974801D01*
X85595842Y-114315000D01*
X85454927Y-114655199D01*
X85368000Y-115092212D01*
X85368000Y-115537788D01*
X85454927Y-115974801D01*
X85625441Y-116386459D01*
X85872990Y-116756941D01*
X86188059Y-117072010D01*
X86558541Y-117319559D01*
X86970199Y-117490073D01*
X87407212Y-117577000D01*
X87852788Y-117577000D01*
X88289801Y-117490073D01*
X88701459Y-117319559D01*
X89071941Y-117072010D01*
X89387010Y-116756941D01*
X89634559Y-116386459D01*
X89805073Y-115974801D01*
X89892000Y-115537788D01*
X89892000Y-115323987D01*
X89983243Y-115315000D01*
X89983253Y-115315000D01*
X90277069Y-115286062D01*
X90654070Y-115171699D01*
X91001517Y-114985985D01*
X91306056Y-114736056D01*
X91368691Y-114659735D01*
X94893000Y-111135427D01*
X94893000Y-111347788D01*
X94979927Y-111784801D01*
X95120842Y-112125000D01*
X94979927Y-112465199D01*
X94893000Y-112902212D01*
X94893000Y-113347788D01*
X94979927Y-113784801D01*
X95120842Y-114125000D01*
X94979927Y-114465199D01*
X94893000Y-114902212D01*
X94893000Y-115347788D01*
X94979927Y-115784801D01*
X95150441Y-116196459D01*
X95397990Y-116566941D01*
X95713059Y-116882010D01*
X96083541Y-117129559D01*
X96495199Y-117300073D01*
X96932212Y-117387000D01*
X97377788Y-117387000D01*
X97814801Y-117300073D01*
X98226459Y-117129559D01*
X98596941Y-116882010D01*
X98912010Y-116566941D01*
X99159559Y-116196459D01*
X99330073Y-115784801D01*
X99417000Y-115347788D01*
X99417000Y-114902212D01*
X99330073Y-114465199D01*
X99189158Y-114125000D01*
X99330073Y-113784801D01*
X99417000Y-113347788D01*
X99417000Y-112902212D01*
X99330073Y-112465199D01*
X99189158Y-112125000D01*
X99330073Y-111784801D01*
X99417000Y-111347788D01*
X99417000Y-110902212D01*
X99330073Y-110465199D01*
X99159559Y-110053541D01*
X98996844Y-109810022D01*
X104393156Y-109810022D01*
X104230441Y-110053541D01*
X104059927Y-110465199D01*
X103973000Y-110902212D01*
X103973000Y-111347788D01*
X104059927Y-111784801D01*
X104200842Y-112125000D01*
X104059927Y-112465199D01*
X103973000Y-112902212D01*
X103973000Y-113347788D01*
X104059927Y-113784801D01*
X104200842Y-114125000D01*
X104059927Y-114465199D01*
X103973000Y-114902212D01*
X103973000Y-115347788D01*
X104059927Y-115784801D01*
X104230441Y-116196459D01*
X104477990Y-116566941D01*
X104793059Y-116882010D01*
X105163541Y-117129559D01*
X105575199Y-117300073D01*
X106012212Y-117387000D01*
X106457788Y-117387000D01*
X106894801Y-117300073D01*
X107306459Y-117129559D01*
X107676941Y-116882010D01*
X107992010Y-116566941D01*
X108239559Y-116196459D01*
X108410073Y-115784801D01*
X108497000Y-115347788D01*
X108497000Y-114902212D01*
X108410073Y-114465199D01*
X108269158Y-114125000D01*
X108410073Y-113784801D01*
X108497000Y-113347788D01*
X108497000Y-112902212D01*
X108410073Y-112465199D01*
X108269158Y-112125000D01*
X108410073Y-111784801D01*
X108411674Y-111776753D01*
X108968427Y-111220000D01*
X112673000Y-111220000D01*
X112673000Y-111347788D01*
X112759927Y-111784801D01*
X112900842Y-112125000D01*
X112759927Y-112465199D01*
X112673000Y-112902212D01*
X112673000Y-113347788D01*
X112759927Y-113784801D01*
X112900842Y-114125000D01*
X112759927Y-114465199D01*
X112673000Y-114902212D01*
X112673000Y-115347788D01*
X112759927Y-115784801D01*
X112930441Y-116196459D01*
X113177990Y-116566941D01*
X113493059Y-116882010D01*
X113863541Y-117129559D01*
X114275199Y-117300073D01*
X114712212Y-117387000D01*
X115157788Y-117387000D01*
X115594801Y-117300073D01*
X116006459Y-117129559D01*
X116376941Y-116882010D01*
X116692010Y-116566941D01*
X116939559Y-116196459D01*
X117110073Y-115784801D01*
X117197000Y-115347788D01*
X117197000Y-114902212D01*
X117110073Y-114465199D01*
X116969158Y-114125000D01*
X117110073Y-113784801D01*
X117197000Y-113347788D01*
X117197000Y-112902212D01*
X117110073Y-112465199D01*
X116969158Y-112125000D01*
X117110073Y-111784801D01*
X117197000Y-111347788D01*
X117197000Y-111220000D01*
X120928000Y-111220000D01*
X120928000Y-111347788D01*
X121014927Y-111784801D01*
X121155842Y-112125000D01*
X121014927Y-112465199D01*
X120928000Y-112902212D01*
X120928000Y-113347788D01*
X121014927Y-113784801D01*
X121155842Y-114125000D01*
X121014927Y-114465199D01*
X120928000Y-114902212D01*
X120928000Y-115347788D01*
X121014927Y-115784801D01*
X121185441Y-116196459D01*
X121432990Y-116566941D01*
X121748059Y-116882010D01*
X122118541Y-117129559D01*
X122530199Y-117300073D01*
X122967212Y-117387000D01*
X123412788Y-117387000D01*
X123849801Y-117300073D01*
X124261459Y-117129559D01*
X124631941Y-116882010D01*
X124947010Y-116566941D01*
X125194559Y-116196459D01*
X125365073Y-115784801D01*
X125452000Y-115347788D01*
X125452000Y-114902212D01*
X125365073Y-114465199D01*
X125224158Y-114125000D01*
X125365073Y-113784801D01*
X125452000Y-113347788D01*
X125452000Y-112902212D01*
X125365073Y-112465199D01*
X125224158Y-112125000D01*
X125365073Y-111784801D01*
X125452000Y-111347788D01*
X125452000Y-110902212D01*
X125365073Y-110465199D01*
X125194559Y-110053541D01*
X124947010Y-109683059D01*
X124631941Y-109367990D01*
X124261459Y-109120441D01*
X124235112Y-109109528D01*
X128979740Y-104364900D01*
X129056056Y-104302269D01*
X129118689Y-104225951D01*
X129305986Y-103997730D01*
X129491699Y-103650283D01*
X129506180Y-103602545D01*
X129606062Y-103273282D01*
X129635000Y-102979466D01*
X129635000Y-102979456D01*
X129644676Y-102881213D01*
X129635000Y-102782970D01*
X129635000Y-99888426D01*
X131003427Y-98520000D01*
X131645298Y-98520000D01*
X131623630Y-98740000D01*
X131669003Y-99200680D01*
X131803379Y-99643657D01*
X132021593Y-100051907D01*
X132118509Y-100170000D01*
X132021593Y-100288093D01*
X131803379Y-100696343D01*
X131669003Y-101139320D01*
X131623630Y-101600000D01*
X131669003Y-102060680D01*
X131803379Y-102503657D01*
X131999193Y-102870000D01*
X131803379Y-103236343D01*
X131669003Y-103679320D01*
X131623630Y-104140000D01*
X131669003Y-104600680D01*
X131803379Y-105043657D01*
X132021593Y-105451907D01*
X132315259Y-105809741D01*
X132673093Y-106103407D01*
X133081343Y-106321621D01*
X133524320Y-106455997D01*
X133869558Y-106490000D01*
X134100442Y-106490000D01*
X134445680Y-106455997D01*
X134888657Y-106321621D01*
X135296907Y-106103407D01*
X135654741Y-105809741D01*
X135948407Y-105451907D01*
X136166621Y-105043657D01*
X136300997Y-104600680D01*
X136346370Y-104140000D01*
X136300997Y-103679320D01*
X136166621Y-103236343D01*
X135970807Y-102870000D01*
X136166621Y-102503657D01*
X136300997Y-102060680D01*
X136346370Y-101600000D01*
X136300997Y-101139320D01*
X136166621Y-100696343D01*
X135948407Y-100288093D01*
X135851491Y-100170000D01*
X135948407Y-100051907D01*
X136166621Y-99643657D01*
X136300997Y-99200680D01*
X136346370Y-98740000D01*
X136300997Y-98279320D01*
X136166621Y-97836343D01*
X136056328Y-97630000D01*
X136166621Y-97423657D01*
X136300997Y-96980680D01*
X136346370Y-96520000D01*
X136300997Y-96059320D01*
X136166621Y-95616343D01*
X135970807Y-95250000D01*
X136166621Y-94883657D01*
X136300997Y-94440680D01*
X136346370Y-93980000D01*
X136300997Y-93519320D01*
X136166621Y-93076343D01*
X135970807Y-92710000D01*
X136166621Y-92343657D01*
X136300997Y-91900680D01*
X136346370Y-91440000D01*
X136300997Y-90979320D01*
X136166621Y-90536343D01*
X135970807Y-90170000D01*
X136166621Y-89803657D01*
X136300997Y-89360680D01*
X136346370Y-88900000D01*
X136300997Y-88439320D01*
X136166621Y-87996343D01*
X135970807Y-87630000D01*
X136166621Y-87263657D01*
X136300997Y-86820680D01*
X136346370Y-86360000D01*
X136300997Y-85899320D01*
X136166621Y-85456343D01*
X135970807Y-85090000D01*
X136166621Y-84723657D01*
X136300997Y-84280680D01*
X136346370Y-83820000D01*
X136300997Y-83359320D01*
X136166621Y-82916343D01*
X135970807Y-82550000D01*
X136166621Y-82183657D01*
X136300997Y-81740680D01*
X136346370Y-81280000D01*
X136300997Y-80819320D01*
X136166621Y-80376343D01*
X135970807Y-80010000D01*
X136166621Y-79643657D01*
X136300997Y-79200680D01*
X136346370Y-78740000D01*
X136300997Y-78279320D01*
X136166621Y-77836343D01*
X135970807Y-77470000D01*
X136166621Y-77103657D01*
X136300997Y-76660680D01*
X136346370Y-76200000D01*
X136300997Y-75739320D01*
X136166621Y-75296343D01*
X135970807Y-74930000D01*
X136166621Y-74563657D01*
X136300997Y-74120680D01*
X136346370Y-73660000D01*
X136300997Y-73199320D01*
X136166621Y-72756343D01*
X135970807Y-72390000D01*
X136166621Y-72023657D01*
X136300997Y-71580680D01*
X136346370Y-71120000D01*
X136300997Y-70659320D01*
X136166621Y-70216343D01*
X135970807Y-69850000D01*
X136166621Y-69483657D01*
X136300997Y-69040680D01*
X136346370Y-68580000D01*
X136300997Y-68119320D01*
X136166621Y-67676343D01*
X135948407Y-67268093D01*
X135654741Y-66910259D01*
X135296907Y-66616593D01*
X134888657Y-66398379D01*
X134445680Y-66264003D01*
X134100442Y-66230000D01*
X133869558Y-66230000D01*
X133524320Y-66264003D01*
X133081343Y-66398379D01*
X132673093Y-66616593D01*
X132315259Y-66910259D01*
X132021593Y-67268093D01*
X131803379Y-67676343D01*
X131669003Y-68119320D01*
X131623630Y-68580000D01*
X131669003Y-69040680D01*
X131803379Y-69483657D01*
X131999193Y-69850000D01*
X131803379Y-70216343D01*
X131669003Y-70659320D01*
X131623630Y-71120000D01*
X131669003Y-71580680D01*
X131803379Y-72023657D01*
X131999193Y-72390000D01*
X131803379Y-72756343D01*
X131669003Y-73199320D01*
X131623630Y-73660000D01*
X131669003Y-74120680D01*
X131803379Y-74563657D01*
X131999193Y-74930000D01*
X131803379Y-75296343D01*
X131669003Y-75739320D01*
X131623630Y-76200000D01*
X131669003Y-76660680D01*
X131803379Y-77103657D01*
X131999193Y-77470000D01*
X131803379Y-77836343D01*
X131669003Y-78279320D01*
X131623630Y-78740000D01*
X131669003Y-79200680D01*
X131693065Y-79280000D01*
X130273242Y-79280000D01*
X130174999Y-79270324D01*
X130076756Y-79280000D01*
X130076747Y-79280000D01*
X129782931Y-79308938D01*
X129405930Y-79423301D01*
X129058483Y-79609015D01*
X128753944Y-79858944D01*
X128691313Y-79935260D01*
X122480265Y-86146309D01*
X122403944Y-86208944D01*
X122154015Y-86513483D01*
X121968301Y-86860931D01*
X121853938Y-87237932D01*
X121825000Y-87531748D01*
X121825000Y-87531757D01*
X121815324Y-87630000D01*
X121825000Y-87728243D01*
X121825001Y-100771572D01*
X121528591Y-101067982D01*
X121537257Y-100980000D01*
X121537257Y-99680000D01*
X121508295Y-99385949D01*
X121422524Y-99103198D01*
X121283238Y-98842613D01*
X121095792Y-98614208D01*
X120867387Y-98426762D01*
X120606802Y-98287476D01*
X120324051Y-98201705D01*
X120030000Y-98172743D01*
X118730000Y-98172743D01*
X118435949Y-98201705D01*
X118153198Y-98287476D01*
X117892613Y-98426762D01*
X117664208Y-98614208D01*
X117476762Y-98842613D01*
X117337476Y-99103198D01*
X117251705Y-99385949D01*
X117222743Y-99680000D01*
X117222743Y-100980000D01*
X117251705Y-101274051D01*
X117337476Y-101556802D01*
X117476762Y-101817387D01*
X117664208Y-102045792D01*
X117892613Y-102233238D01*
X118153198Y-102372524D01*
X118435949Y-102458295D01*
X118730000Y-102487257D01*
X120030000Y-102487257D01*
X120117982Y-102478591D01*
X119186574Y-103410000D01*
X89633243Y-103410000D01*
X89535000Y-103400324D01*
X89436757Y-103410000D01*
X89436747Y-103410000D01*
X89142931Y-103438938D01*
X88765930Y-103553301D01*
X88418483Y-103739014D01*
X88190261Y-103926311D01*
X88190254Y-103926318D01*
X88113944Y-103988944D01*
X88051317Y-104065255D01*
X86978247Y-105138326D01*
X86970199Y-105139927D01*
X86558541Y-105310441D01*
X86188059Y-105557990D01*
X85872990Y-105873059D01*
X85625441Y-106243541D01*
X85454927Y-106655199D01*
X85368000Y-107092212D01*
X79655000Y-107092212D01*
X79655000Y-97020000D01*
X94119467Y-97020000D01*
X99110393Y-102010927D01*
X99188680Y-102106320D01*
X99569354Y-102418731D01*
X100003662Y-102650874D01*
X100474914Y-102793827D01*
X100842187Y-102830000D01*
X100842196Y-102830000D01*
X100964999Y-102842095D01*
X101087802Y-102830000D01*
X101722813Y-102830000D01*
X102090086Y-102793827D01*
X102561338Y-102650874D01*
X102995646Y-102418731D01*
X103376320Y-102106320D01*
X103381507Y-102100000D01*
X107315000Y-102100000D01*
X107412545Y-102090393D01*
X107506342Y-102061940D01*
X107592785Y-102015735D01*
X107668553Y-101953553D01*
X107730735Y-101877785D01*
X107776940Y-101791342D01*
X107805393Y-101697545D01*
X107815000Y-101600000D01*
X107815000Y-95038243D01*
X117230000Y-95038243D01*
X117230000Y-95461757D01*
X117312623Y-95877132D01*
X117474695Y-96268407D01*
X117709986Y-96620545D01*
X118009455Y-96920014D01*
X118361593Y-97155305D01*
X118752868Y-97317377D01*
X119168243Y-97400000D01*
X119591757Y-97400000D01*
X120007132Y-97317377D01*
X120398407Y-97155305D01*
X120750545Y-96920014D01*
X121050014Y-96620545D01*
X121285305Y-96268407D01*
X121447377Y-95877132D01*
X121530000Y-95461757D01*
X121530000Y-95038243D01*
X121447377Y-94622868D01*
X121285305Y-94231593D01*
X121050014Y-93879455D01*
X120750545Y-93579986D01*
X120398407Y-93344695D01*
X120007132Y-93182623D01*
X119591757Y-93100000D01*
X119168243Y-93100000D01*
X118752868Y-93182623D01*
X118361593Y-93344695D01*
X118009455Y-93579986D01*
X117709986Y-93879455D01*
X117474695Y-94231593D01*
X117312623Y-94622868D01*
X117230000Y-95038243D01*
X107815000Y-95038243D01*
X107815000Y-86726000D01*
X117222743Y-86726000D01*
X117222743Y-88026000D01*
X117251705Y-88320051D01*
X117337476Y-88602802D01*
X117476762Y-88863387D01*
X117664208Y-89091792D01*
X117892613Y-89279238D01*
X118153198Y-89418524D01*
X118435949Y-89504295D01*
X118730000Y-89533257D01*
X120030000Y-89533257D01*
X120324051Y-89504295D01*
X120606802Y-89418524D01*
X120867387Y-89279238D01*
X121095792Y-89091792D01*
X121283238Y-88863387D01*
X121422524Y-88602802D01*
X121508295Y-88320051D01*
X121537257Y-88026000D01*
X121537257Y-86726000D01*
X121508295Y-86431949D01*
X121422524Y-86149198D01*
X121283238Y-85888613D01*
X121095792Y-85660208D01*
X120867387Y-85472762D01*
X120606802Y-85333476D01*
X120324051Y-85247705D01*
X120030000Y-85218743D01*
X118730000Y-85218743D01*
X118435949Y-85247705D01*
X118153198Y-85333476D01*
X117892613Y-85472762D01*
X117664208Y-85660208D01*
X117476762Y-85888613D01*
X117337476Y-86149198D01*
X117251705Y-86431949D01*
X117222743Y-86726000D01*
X107815000Y-86726000D01*
X107815000Y-82084243D01*
X117230000Y-82084243D01*
X117230000Y-82507757D01*
X117312623Y-82923132D01*
X117474695Y-83314407D01*
X117709986Y-83666545D01*
X118009455Y-83966014D01*
X118361593Y-84201305D01*
X118752868Y-84363377D01*
X119168243Y-84446000D01*
X119591757Y-84446000D01*
X120007132Y-84363377D01*
X120398407Y-84201305D01*
X120750545Y-83966014D01*
X121050014Y-83666545D01*
X121285305Y-83314407D01*
X121447377Y-82923132D01*
X121530000Y-82507757D01*
X121530000Y-82084243D01*
X121447377Y-81668868D01*
X121285305Y-81277593D01*
X121050014Y-80925455D01*
X120750545Y-80625986D01*
X120398407Y-80390695D01*
X120007132Y-80228623D01*
X119591757Y-80146000D01*
X119168243Y-80146000D01*
X118752868Y-80228623D01*
X118361593Y-80390695D01*
X118009455Y-80625986D01*
X117709986Y-80925455D01*
X117474695Y-81277593D01*
X117312623Y-81668868D01*
X117230000Y-82084243D01*
X107815000Y-82084243D01*
X107815000Y-74280000D01*
X117222743Y-74280000D01*
X117222743Y-75580000D01*
X117251705Y-75874051D01*
X117337476Y-76156802D01*
X117476762Y-76417387D01*
X117664208Y-76645792D01*
X117892613Y-76833238D01*
X118153198Y-76972524D01*
X118435949Y-77058295D01*
X118730000Y-77087257D01*
X120030000Y-77087257D01*
X120324051Y-77058295D01*
X120606802Y-76972524D01*
X120867387Y-76833238D01*
X121095792Y-76645792D01*
X121283238Y-76417387D01*
X121422524Y-76156802D01*
X121508295Y-75874051D01*
X121537257Y-75580000D01*
X121537257Y-74280000D01*
X121508295Y-73985949D01*
X121422524Y-73703198D01*
X121283238Y-73442613D01*
X121095792Y-73214208D01*
X120867387Y-73026762D01*
X120606802Y-72887476D01*
X120324051Y-72801705D01*
X120030000Y-72772743D01*
X118730000Y-72772743D01*
X118435949Y-72801705D01*
X118153198Y-72887476D01*
X117892613Y-73026762D01*
X117664208Y-73214208D01*
X117476762Y-73442613D01*
X117337476Y-73703198D01*
X117251705Y-73985949D01*
X117222743Y-74280000D01*
X107815000Y-74280000D01*
X107815000Y-69638243D01*
X117230000Y-69638243D01*
X117230000Y-70061757D01*
X117312623Y-70477132D01*
X117474695Y-70868407D01*
X117709986Y-71220545D01*
X118009455Y-71520014D01*
X118361593Y-71755305D01*
X118752868Y-71917377D01*
X119168243Y-72000000D01*
X119591757Y-72000000D01*
X120007132Y-71917377D01*
X120398407Y-71755305D01*
X120750545Y-71520014D01*
X121050014Y-71220545D01*
X121285305Y-70868407D01*
X121447377Y-70477132D01*
X121530000Y-70061757D01*
X121530000Y-69638243D01*
X121447377Y-69222868D01*
X121285305Y-68831593D01*
X121050014Y-68479455D01*
X120750545Y-68179986D01*
X120398407Y-67944695D01*
X120007132Y-67782623D01*
X119591757Y-67700000D01*
X119168243Y-67700000D01*
X118752868Y-67782623D01*
X118361593Y-67944695D01*
X118009455Y-68179986D01*
X117709986Y-68479455D01*
X117474695Y-68831593D01*
X117312623Y-69222868D01*
X117230000Y-69638243D01*
X107815000Y-69638243D01*
X107815000Y-61580000D01*
X117222743Y-61580000D01*
X117222743Y-62880000D01*
X117251705Y-63174051D01*
X117337476Y-63456802D01*
X117476762Y-63717387D01*
X117664208Y-63945792D01*
X117892613Y-64133238D01*
X118153198Y-64272524D01*
X118435949Y-64358295D01*
X118730000Y-64387257D01*
X120030000Y-64387257D01*
X120324051Y-64358295D01*
X120606802Y-64272524D01*
X120867387Y-64133238D01*
X121095792Y-63945792D01*
X121283238Y-63717387D01*
X121422524Y-63456802D01*
X121508295Y-63174051D01*
X121537257Y-62880000D01*
X121537257Y-61580000D01*
X121508295Y-61285949D01*
X121422524Y-61003198D01*
X121399435Y-60960000D01*
X131623630Y-60960000D01*
X131669003Y-61420680D01*
X131803379Y-61863657D01*
X131977813Y-62190000D01*
X131803379Y-62516343D01*
X131669003Y-62959320D01*
X131623630Y-63420000D01*
X131669003Y-63880680D01*
X131803379Y-64323657D01*
X132021593Y-64731907D01*
X132315259Y-65089741D01*
X132673093Y-65383407D01*
X133081343Y-65601621D01*
X133524320Y-65735997D01*
X133869558Y-65770000D01*
X134100442Y-65770000D01*
X134445680Y-65735997D01*
X134888657Y-65601621D01*
X135296907Y-65383407D01*
X135654741Y-65089741D01*
X135948407Y-64731907D01*
X136166621Y-64323657D01*
X136300997Y-63880680D01*
X136346370Y-63420000D01*
X136300997Y-62959320D01*
X136166621Y-62516343D01*
X135992187Y-62190000D01*
X136166621Y-61863657D01*
X136300997Y-61420680D01*
X136346370Y-60960000D01*
X136300997Y-60499320D01*
X136166621Y-60056343D01*
X136141071Y-60008543D01*
X136227524Y-59846802D01*
X136313295Y-59564051D01*
X136342257Y-59270000D01*
X136342257Y-58690000D01*
X140222743Y-58690000D01*
X140222743Y-60690000D01*
X140251705Y-60984051D01*
X140337476Y-61266802D01*
X140476762Y-61527387D01*
X140480000Y-61531333D01*
X140480001Y-63794782D01*
X140462743Y-63970000D01*
X140462743Y-64745439D01*
X140460324Y-64770000D01*
X140462743Y-64794561D01*
X140462743Y-65570000D01*
X140470001Y-65643688D01*
X140470000Y-68341318D01*
X140462743Y-68415000D01*
X140462743Y-70015000D01*
X140470001Y-70088688D01*
X140470000Y-72521757D01*
X140460324Y-72620000D01*
X140470000Y-72718243D01*
X140470000Y-72718252D01*
X140498938Y-73012068D01*
X140613301Y-73389069D01*
X140799015Y-73736517D01*
X141048944Y-74041056D01*
X141125265Y-74103691D01*
X143296313Y-76274740D01*
X143358944Y-76351056D01*
X143435260Y-76413687D01*
X143435261Y-76413688D01*
X143662300Y-76600014D01*
X143663483Y-76600985D01*
X144010930Y-76786699D01*
X144387931Y-76901062D01*
X144681747Y-76930000D01*
X144681756Y-76930000D01*
X144779999Y-76939676D01*
X144878242Y-76930000D01*
X150396757Y-76930000D01*
X150495000Y-76939676D01*
X150593243Y-76930000D01*
X150593253Y-76930000D01*
X150887069Y-76901062D01*
X151264070Y-76786699D01*
X151611517Y-76600985D01*
X151916056Y-76351056D01*
X151978691Y-76274735D01*
X154493474Y-73759952D01*
X154529003Y-74120680D01*
X154663379Y-74563657D01*
X154859193Y-74930000D01*
X154663379Y-75296343D01*
X154529003Y-75739320D01*
X154483630Y-76200000D01*
X154529003Y-76660680D01*
X154663379Y-77103657D01*
X154859193Y-77470000D01*
X154663379Y-77836343D01*
X154529003Y-78279320D01*
X154483630Y-78740000D01*
X154529003Y-79200680D01*
X154663379Y-79643657D01*
X154859193Y-80010000D01*
X154663379Y-80376343D01*
X154529003Y-80819320D01*
X154483630Y-81280000D01*
X154529003Y-81740680D01*
X154663379Y-82183657D01*
X154859193Y-82550000D01*
X154663379Y-82916343D01*
X154529003Y-83359320D01*
X154483630Y-83820000D01*
X154529003Y-84280680D01*
X154663379Y-84723657D01*
X154859193Y-85090000D01*
X154663379Y-85456343D01*
X154529003Y-85899320D01*
X154483630Y-86360000D01*
X154529003Y-86820680D01*
X154663379Y-87263657D01*
X154859193Y-87630000D01*
X154663379Y-87996343D01*
X154529003Y-88439320D01*
X154483630Y-88900000D01*
X154529003Y-89360680D01*
X154663379Y-89803657D01*
X154859193Y-90170000D01*
X154663379Y-90536343D01*
X154529003Y-90979320D01*
X154483630Y-91440000D01*
X154529003Y-91900680D01*
X154663379Y-92343657D01*
X154859193Y-92710000D01*
X154663379Y-93076343D01*
X154529003Y-93519320D01*
X154483630Y-93980000D01*
X154529003Y-94440680D01*
X154663379Y-94883657D01*
X154859193Y-95250000D01*
X154663379Y-95616343D01*
X154529003Y-96059320D01*
X154483630Y-96520000D01*
X154529003Y-96980680D01*
X154663379Y-97423657D01*
X154859193Y-97790000D01*
X154663379Y-98156343D01*
X154529003Y-98599320D01*
X154483630Y-99060000D01*
X154529003Y-99520680D01*
X154663379Y-99963657D01*
X154859193Y-100330000D01*
X154663379Y-100696343D01*
X154529003Y-101139320D01*
X154483630Y-101600000D01*
X154529003Y-102060680D01*
X154663379Y-102503657D01*
X154859193Y-102870000D01*
X154663379Y-103236343D01*
X154529003Y-103679320D01*
X154483630Y-104140000D01*
X154529003Y-104600680D01*
X154663379Y-105043657D01*
X154859193Y-105410000D01*
X154663379Y-105776343D01*
X154529003Y-106219320D01*
X154483630Y-106680000D01*
X154529003Y-107140680D01*
X154663379Y-107583657D01*
X154881593Y-107991907D01*
X155175259Y-108349741D01*
X155533093Y-108643407D01*
X155941343Y-108861621D01*
X156384320Y-108995997D01*
X156729558Y-109030000D01*
X156960442Y-109030000D01*
X157305680Y-108995997D01*
X157748657Y-108861621D01*
X158156907Y-108643407D01*
X158514741Y-108349741D01*
X158808407Y-107991907D01*
X159026621Y-107583657D01*
X159160997Y-107140680D01*
X159206370Y-106680000D01*
X159160997Y-106219320D01*
X159026621Y-105776343D01*
X158830807Y-105410000D01*
X159026621Y-105043657D01*
X159160997Y-104600680D01*
X159206370Y-104140000D01*
X159160997Y-103679320D01*
X159026621Y-103236343D01*
X158830807Y-102870000D01*
X159026621Y-102503657D01*
X159160997Y-102060680D01*
X159206370Y-101600000D01*
X159160997Y-101139320D01*
X159026621Y-100696343D01*
X158830807Y-100330000D01*
X159026621Y-99963657D01*
X159160997Y-99520680D01*
X159206370Y-99060000D01*
X159160997Y-98599320D01*
X159026621Y-98156343D01*
X158830807Y-97790000D01*
X158943993Y-97578243D01*
X171205000Y-97578243D01*
X171205000Y-98001757D01*
X171287623Y-98417132D01*
X171449695Y-98808407D01*
X171684986Y-99160545D01*
X171984455Y-99460014D01*
X172336593Y-99695305D01*
X172727868Y-99857377D01*
X173143243Y-99940000D01*
X173566757Y-99940000D01*
X173982132Y-99857377D01*
X174373407Y-99695305D01*
X174725545Y-99460014D01*
X175025014Y-99160545D01*
X175260305Y-98808407D01*
X175422377Y-98417132D01*
X175505000Y-98001757D01*
X175505000Y-97578243D01*
X175422377Y-97162868D01*
X175260305Y-96771593D01*
X175025014Y-96419455D01*
X174725545Y-96119986D01*
X174373407Y-95884695D01*
X173982132Y-95722623D01*
X173566757Y-95640000D01*
X173143243Y-95640000D01*
X172727868Y-95722623D01*
X172336593Y-95884695D01*
X171984455Y-96119986D01*
X171684986Y-96419455D01*
X171449695Y-96771593D01*
X171287623Y-97162868D01*
X171205000Y-97578243D01*
X158943993Y-97578243D01*
X159026621Y-97423657D01*
X159160997Y-96980680D01*
X159206370Y-96520000D01*
X159160997Y-96059320D01*
X159026621Y-95616343D01*
X158830807Y-95250000D01*
X159026621Y-94883657D01*
X159160997Y-94440680D01*
X159206370Y-93980000D01*
X159160997Y-93519320D01*
X159026621Y-93076343D01*
X158830807Y-92710000D01*
X159026621Y-92343657D01*
X159112667Y-92060000D01*
X171197743Y-92060000D01*
X171197743Y-93360000D01*
X171226705Y-93654051D01*
X171312476Y-93936802D01*
X171451762Y-94197387D01*
X171639208Y-94425792D01*
X171867613Y-94613238D01*
X172128198Y-94752524D01*
X172410949Y-94838295D01*
X172705000Y-94867257D01*
X174005000Y-94867257D01*
X174299051Y-94838295D01*
X174581802Y-94752524D01*
X174842387Y-94613238D01*
X175070792Y-94425792D01*
X175258238Y-94197387D01*
X175397524Y-93936802D01*
X175483295Y-93654051D01*
X175512257Y-93360000D01*
X175512257Y-92060000D01*
X175483295Y-91765949D01*
X175397524Y-91483198D01*
X175258238Y-91222613D01*
X175070792Y-90994208D01*
X174842387Y-90806762D01*
X174581802Y-90667476D01*
X174299051Y-90581705D01*
X174005000Y-90552743D01*
X172705000Y-90552743D01*
X172410949Y-90581705D01*
X172128198Y-90667476D01*
X171867613Y-90806762D01*
X171639208Y-90994208D01*
X171451762Y-91222613D01*
X171312476Y-91483198D01*
X171226705Y-91765949D01*
X171197743Y-92060000D01*
X159112667Y-92060000D01*
X159160997Y-91900680D01*
X159206370Y-91440000D01*
X159160997Y-90979320D01*
X159026621Y-90536343D01*
X158830807Y-90170000D01*
X159026621Y-89803657D01*
X159160997Y-89360680D01*
X159206370Y-88900000D01*
X159160997Y-88439320D01*
X159026621Y-87996343D01*
X158830807Y-87630000D01*
X159026621Y-87263657D01*
X159160997Y-86820680D01*
X159206370Y-86360000D01*
X159160997Y-85899320D01*
X159026621Y-85456343D01*
X158830807Y-85090000D01*
X158943993Y-84878243D01*
X171205000Y-84878243D01*
X171205000Y-85301757D01*
X171287623Y-85717132D01*
X171449695Y-86108407D01*
X171684986Y-86460545D01*
X171984455Y-86760014D01*
X172336593Y-86995305D01*
X172727868Y-87157377D01*
X173143243Y-87240000D01*
X173566757Y-87240000D01*
X173982132Y-87157377D01*
X174373407Y-86995305D01*
X174725545Y-86760014D01*
X175025014Y-86460545D01*
X175260305Y-86108407D01*
X175422377Y-85717132D01*
X175505000Y-85301757D01*
X175505000Y-84878243D01*
X175422377Y-84462868D01*
X175260305Y-84071593D01*
X175025014Y-83719455D01*
X174725545Y-83419986D01*
X174373407Y-83184695D01*
X173982132Y-83022623D01*
X173566757Y-82940000D01*
X173143243Y-82940000D01*
X172727868Y-83022623D01*
X172336593Y-83184695D01*
X171984455Y-83419986D01*
X171684986Y-83719455D01*
X171449695Y-84071593D01*
X171287623Y-84462868D01*
X171205000Y-84878243D01*
X158943993Y-84878243D01*
X159026621Y-84723657D01*
X159160997Y-84280680D01*
X159206370Y-83820000D01*
X159160997Y-83359320D01*
X159026621Y-82916343D01*
X158830807Y-82550000D01*
X159026621Y-82183657D01*
X159160997Y-81740680D01*
X159206370Y-81280000D01*
X159160997Y-80819320D01*
X159026621Y-80376343D01*
X158830807Y-80010000D01*
X159026621Y-79643657D01*
X159112667Y-79360000D01*
X171197743Y-79360000D01*
X171197743Y-80660000D01*
X171226705Y-80954051D01*
X171312476Y-81236802D01*
X171451762Y-81497387D01*
X171639208Y-81725792D01*
X171867613Y-81913238D01*
X172128198Y-82052524D01*
X172410949Y-82138295D01*
X172705000Y-82167257D01*
X174005000Y-82167257D01*
X174299051Y-82138295D01*
X174581802Y-82052524D01*
X174842387Y-81913238D01*
X175070792Y-81725792D01*
X175258238Y-81497387D01*
X175397524Y-81236802D01*
X175483295Y-80954051D01*
X175512257Y-80660000D01*
X175512257Y-79360000D01*
X175483295Y-79065949D01*
X175397524Y-78783198D01*
X175258238Y-78522613D01*
X175070792Y-78294208D01*
X174842387Y-78106762D01*
X174581802Y-77967476D01*
X174299051Y-77881705D01*
X174005000Y-77852743D01*
X172705000Y-77852743D01*
X172410949Y-77881705D01*
X172128198Y-77967476D01*
X171867613Y-78106762D01*
X171639208Y-78294208D01*
X171451762Y-78522613D01*
X171312476Y-78783198D01*
X171226705Y-79065949D01*
X171197743Y-79360000D01*
X159112667Y-79360000D01*
X159160997Y-79200680D01*
X159206370Y-78740000D01*
X159160997Y-78279320D01*
X159026621Y-77836343D01*
X158830807Y-77470000D01*
X159026621Y-77103657D01*
X159160997Y-76660680D01*
X159206370Y-76200000D01*
X159160997Y-75739320D01*
X159026621Y-75296343D01*
X158830807Y-74930000D01*
X159026621Y-74563657D01*
X159160997Y-74120680D01*
X159206370Y-73660000D01*
X159160997Y-73199320D01*
X159026621Y-72756343D01*
X158830807Y-72390000D01*
X158943993Y-72178243D01*
X171205000Y-72178243D01*
X171205000Y-72601757D01*
X171287623Y-73017132D01*
X171449695Y-73408407D01*
X171684986Y-73760545D01*
X171984455Y-74060014D01*
X172336593Y-74295305D01*
X172727868Y-74457377D01*
X173143243Y-74540000D01*
X173566757Y-74540000D01*
X173982132Y-74457377D01*
X174373407Y-74295305D01*
X174725545Y-74060014D01*
X175025014Y-73760545D01*
X175260305Y-73408407D01*
X175422377Y-73017132D01*
X175505000Y-72601757D01*
X175505000Y-72178243D01*
X175422377Y-71762868D01*
X175260305Y-71371593D01*
X175025014Y-71019455D01*
X174725545Y-70719986D01*
X174373407Y-70484695D01*
X173982132Y-70322623D01*
X173566757Y-70240000D01*
X173143243Y-70240000D01*
X172727868Y-70322623D01*
X172336593Y-70484695D01*
X171984455Y-70719986D01*
X171684986Y-71019455D01*
X171449695Y-71371593D01*
X171287623Y-71762868D01*
X171205000Y-72178243D01*
X158943993Y-72178243D01*
X159026621Y-72023657D01*
X159160997Y-71580680D01*
X159206370Y-71120000D01*
X159160997Y-70659320D01*
X159026621Y-70216343D01*
X158830807Y-69850000D01*
X159026621Y-69483657D01*
X159160997Y-69040680D01*
X159206370Y-68580000D01*
X159160997Y-68119320D01*
X159026621Y-67676343D01*
X158808407Y-67268093D01*
X158785418Y-67240081D01*
X158986621Y-66863657D01*
X159048399Y-66660000D01*
X171197743Y-66660000D01*
X171197743Y-67960000D01*
X171226705Y-68254051D01*
X171312476Y-68536802D01*
X171451762Y-68797387D01*
X171639208Y-69025792D01*
X171867613Y-69213238D01*
X172128198Y-69352524D01*
X172410949Y-69438295D01*
X172705000Y-69467257D01*
X174005000Y-69467257D01*
X174299051Y-69438295D01*
X174581802Y-69352524D01*
X174842387Y-69213238D01*
X175070792Y-69025792D01*
X175258238Y-68797387D01*
X175397524Y-68536802D01*
X175483295Y-68254051D01*
X175512257Y-67960000D01*
X175512257Y-66660000D01*
X175483295Y-66365949D01*
X175397524Y-66083198D01*
X175258238Y-65822613D01*
X175070792Y-65594208D01*
X174842387Y-65406762D01*
X174581802Y-65267476D01*
X174299051Y-65181705D01*
X174005000Y-65152743D01*
X172705000Y-65152743D01*
X172410949Y-65181705D01*
X172128198Y-65267476D01*
X171867613Y-65406762D01*
X171639208Y-65594208D01*
X171451762Y-65822613D01*
X171312476Y-66083198D01*
X171226705Y-66365949D01*
X171197743Y-66660000D01*
X159048399Y-66660000D01*
X159120997Y-66420680D01*
X159166370Y-65960000D01*
X159120997Y-65499320D01*
X158986621Y-65056343D01*
X158810807Y-64727417D01*
X159026621Y-64323657D01*
X159160997Y-63880680D01*
X159206370Y-63420000D01*
X159160997Y-62959320D01*
X159026621Y-62516343D01*
X158852187Y-62190000D01*
X159026621Y-61863657D01*
X159160997Y-61420680D01*
X159206370Y-60960000D01*
X159160997Y-60499320D01*
X159026621Y-60056343D01*
X158830807Y-59690000D01*
X159026621Y-59323657D01*
X159160997Y-58880680D01*
X159206370Y-58420000D01*
X159160997Y-57959320D01*
X159026621Y-57516343D01*
X158808407Y-57108093D01*
X158514741Y-56750259D01*
X158343834Y-56610000D01*
X158556573Y-56610000D01*
X159512153Y-57565581D01*
X159481762Y-57602613D01*
X159342476Y-57863198D01*
X159256705Y-58145949D01*
X159227743Y-58440000D01*
X159227743Y-60940000D01*
X159256705Y-61234051D01*
X159342476Y-61516802D01*
X159481762Y-61777387D01*
X159669208Y-62005792D01*
X159897613Y-62193238D01*
X160158198Y-62332524D01*
X160440949Y-62418295D01*
X160735000Y-62447257D01*
X162735000Y-62447257D01*
X163029051Y-62418295D01*
X163311802Y-62332524D01*
X163572387Y-62193238D01*
X163735000Y-62059786D01*
X163897613Y-62193238D01*
X164158198Y-62332524D01*
X164440949Y-62418295D01*
X164735000Y-62447257D01*
X166735000Y-62447257D01*
X167029051Y-62418295D01*
X167311802Y-62332524D01*
X167572387Y-62193238D01*
X167800792Y-62005792D01*
X167988238Y-61777387D01*
X168127524Y-61516802D01*
X168213295Y-61234051D01*
X168242257Y-60940000D01*
X168242257Y-59478243D01*
X171205000Y-59478243D01*
X171205000Y-59901757D01*
X171287623Y-60317132D01*
X171449695Y-60708407D01*
X171684986Y-61060545D01*
X171984455Y-61360014D01*
X172336593Y-61595305D01*
X172727868Y-61757377D01*
X173143243Y-61840000D01*
X173566757Y-61840000D01*
X173982132Y-61757377D01*
X174373407Y-61595305D01*
X174725545Y-61360014D01*
X175025014Y-61060545D01*
X175260305Y-60708407D01*
X175422377Y-60317132D01*
X175505000Y-59901757D01*
X175505000Y-59478243D01*
X175422377Y-59062868D01*
X175260305Y-58671593D01*
X175025014Y-58319455D01*
X174725545Y-58019986D01*
X174373407Y-57784695D01*
X173982132Y-57622623D01*
X173566757Y-57540000D01*
X173143243Y-57540000D01*
X172727868Y-57622623D01*
X172336593Y-57784695D01*
X171984455Y-58019986D01*
X171684986Y-58319455D01*
X171449695Y-58671593D01*
X171287623Y-59062868D01*
X171205000Y-59478243D01*
X168242257Y-59478243D01*
X168242257Y-58440000D01*
X168213295Y-58145949D01*
X168127524Y-57863198D01*
X167988238Y-57602613D01*
X167800792Y-57374208D01*
X167735000Y-57320214D01*
X167735000Y-57248242D01*
X167744676Y-57149999D01*
X167735000Y-57051756D01*
X167735000Y-57051747D01*
X167706062Y-56757931D01*
X167591699Y-56380930D01*
X167405985Y-56033483D01*
X167156056Y-55728944D01*
X167079740Y-55666313D01*
X165607257Y-54193831D01*
X165607257Y-53960000D01*
X171197743Y-53960000D01*
X171197743Y-55260000D01*
X171226705Y-55554051D01*
X171312476Y-55836802D01*
X171451762Y-56097387D01*
X171639208Y-56325792D01*
X171867613Y-56513238D01*
X172128198Y-56652524D01*
X172410949Y-56738295D01*
X172705000Y-56767257D01*
X174005000Y-56767257D01*
X174299051Y-56738295D01*
X174581802Y-56652524D01*
X174842387Y-56513238D01*
X175070792Y-56325792D01*
X175258238Y-56097387D01*
X175397524Y-55836802D01*
X175483295Y-55554051D01*
X175512257Y-55260000D01*
X175512257Y-53960000D01*
X175483295Y-53665949D01*
X175397524Y-53383198D01*
X175258238Y-53122613D01*
X175070792Y-52894208D01*
X174842387Y-52706762D01*
X174581802Y-52567476D01*
X174299051Y-52481705D01*
X174005000Y-52452743D01*
X172705000Y-52452743D01*
X172410949Y-52481705D01*
X172128198Y-52567476D01*
X171867613Y-52706762D01*
X171639208Y-52894208D01*
X171451762Y-53122613D01*
X171312476Y-53383198D01*
X171226705Y-53665949D01*
X171197743Y-53960000D01*
X165607257Y-53960000D01*
X165607257Y-53760000D01*
X165578295Y-53465949D01*
X165492524Y-53183198D01*
X165353238Y-52922613D01*
X165165792Y-52694208D01*
X164937387Y-52506762D01*
X164676802Y-52367476D01*
X164394051Y-52281705D01*
X164100000Y-52252743D01*
X162100000Y-52252743D01*
X161805949Y-52281705D01*
X161523198Y-52367476D01*
X161262613Y-52506762D01*
X161034208Y-52694208D01*
X160846762Y-52922613D01*
X160735399Y-53130957D01*
X160501517Y-52939015D01*
X160154070Y-52753301D01*
X159777069Y-52638938D01*
X159483253Y-52610000D01*
X159483243Y-52610000D01*
X159385000Y-52600324D01*
X159286757Y-52610000D01*
X156183446Y-52610000D01*
X155843657Y-52428379D01*
X155400680Y-52294003D01*
X155055442Y-52260000D01*
X154824558Y-52260000D01*
X154479320Y-52294003D01*
X154036343Y-52428379D01*
X153988543Y-52453929D01*
X153826802Y-52367476D01*
X153544051Y-52281705D01*
X153250000Y-52252743D01*
X151550000Y-52252743D01*
X151255949Y-52281705D01*
X150973198Y-52367476D01*
X150712613Y-52506762D01*
X150484208Y-52694208D01*
X150296762Y-52922613D01*
X150157476Y-53183198D01*
X150071705Y-53465949D01*
X150042743Y-53760000D01*
X150042743Y-55460000D01*
X150071705Y-55754051D01*
X150157476Y-56036802D01*
X150296762Y-56297387D01*
X150394598Y-56416602D01*
X150390324Y-56460000D01*
X150400001Y-56558252D01*
X150400001Y-56558253D01*
X150428939Y-56852069D01*
X150453411Y-56932743D01*
X150543301Y-57229069D01*
X150729015Y-57576516D01*
X150893657Y-57777132D01*
X150978945Y-57881056D01*
X151055261Y-57943687D01*
X151670000Y-58558426D01*
X151670001Y-70926572D01*
X149666574Y-72930000D01*
X145608427Y-72930000D01*
X144470000Y-71791574D01*
X144470000Y-71257887D01*
X144482613Y-71268238D01*
X144743198Y-71407524D01*
X145025949Y-71493295D01*
X145320000Y-71522257D01*
X146320000Y-71522257D01*
X146614051Y-71493295D01*
X146896802Y-71407524D01*
X147157387Y-71268238D01*
X147385792Y-71080792D01*
X147573238Y-70852387D01*
X147712524Y-70591802D01*
X147798295Y-70309051D01*
X147827257Y-70015000D01*
X147827257Y-68415000D01*
X147820000Y-68341320D01*
X147820000Y-65643680D01*
X147827257Y-65570000D01*
X147827257Y-63970000D01*
X147820000Y-63896320D01*
X147820000Y-63098242D01*
X147829676Y-62999999D01*
X147820000Y-62901756D01*
X147820000Y-62901747D01*
X147791062Y-62607931D01*
X147676699Y-62230930D01*
X147648402Y-62177989D01*
X147708784Y-62190000D01*
X148201240Y-62190000D01*
X148684235Y-62093926D01*
X149139206Y-61905471D01*
X149548669Y-61631876D01*
X149896888Y-61283657D01*
X150170483Y-60874194D01*
X150358938Y-60419223D01*
X150455012Y-59936228D01*
X150455012Y-59443772D01*
X150358938Y-58960777D01*
X150170483Y-58505806D01*
X149896888Y-58096343D01*
X149548669Y-57748124D01*
X149139206Y-57474529D01*
X148684235Y-57286074D01*
X148201240Y-57190000D01*
X147708784Y-57190000D01*
X147225789Y-57286074D01*
X146770818Y-57474529D01*
X146573809Y-57606167D01*
X146367387Y-57436762D01*
X146106802Y-57297476D01*
X145824051Y-57211705D01*
X145530000Y-57182743D01*
X144030000Y-57182743D01*
X143735949Y-57211705D01*
X143630000Y-57243844D01*
X143524051Y-57211705D01*
X143230000Y-57182743D01*
X141730000Y-57182743D01*
X141435949Y-57211705D01*
X141153198Y-57297476D01*
X140892613Y-57436762D01*
X140664208Y-57624208D01*
X140476762Y-57852613D01*
X140337476Y-58113198D01*
X140251705Y-58395949D01*
X140222743Y-58690000D01*
X136342257Y-58690000D01*
X136342257Y-57570000D01*
X136313295Y-57275949D01*
X136227524Y-56993198D01*
X136088238Y-56732613D01*
X135900792Y-56504208D01*
X135672387Y-56316762D01*
X135411802Y-56177476D01*
X135129051Y-56091705D01*
X134835000Y-56062743D01*
X133135000Y-56062743D01*
X132840949Y-56091705D01*
X132558198Y-56177476D01*
X132297613Y-56316762D01*
X132069208Y-56504208D01*
X131881762Y-56732613D01*
X131742476Y-56993198D01*
X131656705Y-57275949D01*
X131627743Y-57570000D01*
X131627743Y-59270000D01*
X131656705Y-59564051D01*
X131742476Y-59846802D01*
X131828929Y-60008543D01*
X131803379Y-60056343D01*
X131669003Y-60499320D01*
X131623630Y-60960000D01*
X121399435Y-60960000D01*
X121283238Y-60742613D01*
X121095792Y-60514208D01*
X120867387Y-60326762D01*
X120606802Y-60187476D01*
X120324051Y-60101705D01*
X120030000Y-60072743D01*
X118730000Y-60072743D01*
X118435949Y-60101705D01*
X118153198Y-60187476D01*
X117892613Y-60326762D01*
X117664208Y-60514208D01*
X117476762Y-60742613D01*
X117337476Y-61003198D01*
X117251705Y-61285949D01*
X117222743Y-61580000D01*
X107815000Y-61580000D01*
X107815000Y-56938243D01*
X117230000Y-56938243D01*
X117230000Y-57361757D01*
X117312623Y-57777132D01*
X117474695Y-58168407D01*
X117709986Y-58520545D01*
X118009455Y-58820014D01*
X118361593Y-59055305D01*
X118752868Y-59217377D01*
X119168243Y-59300000D01*
X119591757Y-59300000D01*
X120007132Y-59217377D01*
X120398407Y-59055305D01*
X120750545Y-58820014D01*
X121050014Y-58520545D01*
X121285305Y-58168407D01*
X121447377Y-57777132D01*
X121530000Y-57361757D01*
X121530000Y-56938243D01*
X121447377Y-56522868D01*
X121285305Y-56131593D01*
X121050014Y-55779455D01*
X120750545Y-55479986D01*
X120398407Y-55244695D01*
X120007132Y-55082623D01*
X119591757Y-55000000D01*
X119168243Y-55000000D01*
X118752868Y-55082623D01*
X118361593Y-55244695D01*
X118009455Y-55479986D01*
X117709986Y-55779455D01*
X117474695Y-56131593D01*
X117312623Y-56522868D01*
X117230000Y-56938243D01*
X107815000Y-56938243D01*
X107815000Y-53340000D01*
X107805393Y-53242455D01*
X107776940Y-53148658D01*
X107730735Y-53062215D01*
X107668553Y-52986447D01*
X107592785Y-52924265D01*
X107506342Y-52878060D01*
X107412545Y-52849607D01*
X107315000Y-52840000D01*
X103381507Y-52840000D01*
X103376320Y-52833680D01*
X102995645Y-52521269D01*
X102561337Y-52289126D01*
X102090085Y-52146174D01*
X101599999Y-52097905D01*
X101109914Y-52146174D01*
X100638662Y-52289126D01*
X100204354Y-52521269D01*
X99919074Y-52755392D01*
X93046724Y-59627743D01*
X90703000Y-59627743D01*
X90629320Y-59635000D01*
X86276680Y-59635000D01*
X86203000Y-59627743D01*
X80203000Y-59627743D01*
X79908949Y-59656705D01*
X79655000Y-59733739D01*
X79655000Y-51715000D01*
X139239964Y-51715000D01*
X139187476Y-51813198D01*
X139187476Y-51813198D01*
G37*
X139187476Y-51813198D02*
X139101705Y-52095949D01*
X139072743Y-52390000D01*
X139072743Y-54390000D01*
X139101705Y-54684051D01*
X139187476Y-54966802D01*
X139326762Y-55227387D01*
X139514208Y-55455792D01*
X139742613Y-55643238D01*
X140003198Y-55782524D01*
X140285949Y-55868295D01*
X140580000Y-55897257D01*
X144380000Y-55897257D01*
X144674051Y-55868295D01*
X144956802Y-55782524D01*
X145217387Y-55643238D01*
X145445792Y-55455792D01*
X145633238Y-55227387D01*
X145772524Y-54966802D01*
X145858295Y-54684051D01*
X145887257Y-54390000D01*
X145887257Y-52390000D01*
X145858295Y-52095949D01*
X145772524Y-51813198D01*
X145720036Y-51715000D01*
X212445000Y-51715000D01*
X212445000Y-59190000D01*
X202430000Y-59190000D01*
X202430000Y-58420000D01*
X202420393Y-58322455D01*
X202391940Y-58228658D01*
X202345735Y-58142215D01*
X202283553Y-58066447D01*
X197203553Y-52986447D01*
X197127785Y-52924265D01*
X197041342Y-52878060D01*
X196947545Y-52849607D01*
X196850000Y-52840000D01*
X195889474Y-52840000D01*
X195884287Y-52833680D01*
X195503613Y-52521269D01*
X195069305Y-52289126D01*
X194598053Y-52146173D01*
X194230780Y-52110000D01*
X194230770Y-52110000D01*
X194107967Y-52097905D01*
X193985164Y-52110000D01*
X191012187Y-52110000D01*
X190644914Y-52146173D01*
X190173662Y-52289126D01*
X189739354Y-52521269D01*
X189358680Y-52833680D01*
X189353493Y-52840000D01*
X187960000Y-52840000D01*
X187862455Y-52849607D01*
X187768658Y-52878060D01*
X187682215Y-52924265D01*
X187606447Y-52986447D01*
X187544265Y-53062215D01*
X187498060Y-53148658D01*
X187469607Y-53242455D01*
X187460000Y-53340000D01*
X187460000Y-103505000D01*
X187469607Y-103602545D01*
X187498060Y-103696342D01*
X187544265Y-103782785D01*
X187606447Y-103858553D01*
X187682215Y-103920735D01*
X187768658Y-103966940D01*
X187862455Y-103995393D01*
X187960000Y-104005000D01*
X196215000Y-104005000D01*
X196312545Y-103995393D01*
X196406342Y-103966940D01*
X196492785Y-103920735D01*
X196568553Y-103858553D01*
X202772106Y-97655000D01*
X212445001Y-97655000D01*
X212445001Y-124180000D01*
X191197257Y-124180000D01*
X191197257Y-119537000D01*
X191190000Y-119463320D01*
X191190000Y-115110680D01*
X191197257Y-115037000D01*
X191197257Y-114895000D01*
X197402743Y-114895000D01*
X197402743Y-117320000D01*
X197431705Y-117614051D01*
X197517476Y-117896802D01*
X197656762Y-118157387D01*
X197844208Y-118385792D01*
X198072613Y-118573238D01*
X198333198Y-118712524D01*
X198615949Y-118798295D01*
X198910000Y-118827257D01*
X202410000Y-118827257D01*
X202704051Y-118798295D01*
X202986802Y-118712524D01*
X203247387Y-118573238D01*
X203475792Y-118385792D01*
X203663238Y-118157387D01*
X203802524Y-117896802D01*
X203888295Y-117614051D01*
X203917257Y-117320000D01*
X203917257Y-113820000D01*
X203888295Y-113525949D01*
X203802524Y-113243198D01*
X203663238Y-112982613D01*
X203475792Y-112754208D01*
X203247387Y-112566762D01*
X203109636Y-112493132D01*
X202980874Y-112068662D01*
X202788298Y-111708378D01*
X202748732Y-111634355D01*
X202584027Y-111433662D01*
X202436320Y-111253680D01*
X202340923Y-111175390D01*
X201879612Y-110714079D01*
X201801320Y-110618680D01*
X201420646Y-110306269D01*
X200986338Y-110074126D01*
X200515086Y-109931173D01*
X200147813Y-109895000D01*
X200147803Y-109895000D01*
X200025000Y-109882905D01*
X199902197Y-109895000D01*
X189704802Y-109895000D01*
X189581999Y-109882905D01*
X189459196Y-109895000D01*
X189459187Y-109895000D01*
X189091914Y-109931173D01*
X188766973Y-110029743D01*
X187690000Y-110029743D01*
X187395949Y-110058705D01*
X187113198Y-110144476D01*
X186852613Y-110283762D01*
X186624208Y-110471208D01*
X186436762Y-110699613D01*
X186297476Y-110960198D01*
X186211705Y-111242949D01*
X186182743Y-111537000D01*
X186182743Y-113237879D01*
X186177905Y-113287000D01*
X186182743Y-113336121D01*
X186182743Y-115037000D01*
X186190000Y-115110682D01*
X186190001Y-119463313D01*
X186182743Y-119537000D01*
X186182743Y-124180000D01*
X174712426Y-124180000D01*
X180414740Y-118477687D01*
X180491056Y-118415056D01*
X180740985Y-118110517D01*
X180926699Y-117763070D01*
X181041062Y-117386069D01*
X181070000Y-117092253D01*
X181070000Y-117092244D01*
X181079676Y-116994001D01*
X181070000Y-116895758D01*
X181070000Y-111318426D01*
X183863837Y-108524590D01*
X184244223Y-108448926D01*
X184699194Y-108260471D01*
X185108657Y-107986876D01*
X185456876Y-107638657D01*
X185730471Y-107229194D01*
X185918926Y-106774223D01*
X186015000Y-106291228D01*
X186015000Y-105798772D01*
X185918926Y-105315777D01*
X185730471Y-104860806D01*
X185456876Y-104451343D01*
X185108657Y-104103124D01*
X184699194Y-103829529D01*
X184244223Y-103641074D01*
X183761228Y-103545000D01*
X183268772Y-103545000D01*
X182785777Y-103641074D01*
X182330806Y-103829529D01*
X181921343Y-104103124D01*
X181573124Y-104451343D01*
X181299529Y-104860806D01*
X181111074Y-105315777D01*
X181035410Y-105696163D01*
X177725261Y-109006313D01*
X177648945Y-109068944D01*
X177586314Y-109145260D01*
X177586312Y-109145262D01*
X177399015Y-109373484D01*
X177213301Y-109720931D01*
X177136290Y-109974801D01*
X177123469Y-110017069D01*
X177098939Y-110097932D01*
X177060324Y-110490000D01*
X177070001Y-110588253D01*
X177070000Y-116165573D01*
X171587574Y-121648000D01*
X150569123Y-121648000D01*
X150612524Y-121566802D01*
X150698295Y-121284051D01*
X150727257Y-120990000D01*
X150727257Y-118990000D01*
X150698295Y-118695949D01*
X150612524Y-118413198D01*
X150473238Y-118152613D01*
X150285792Y-117924208D01*
X150057387Y-117736762D01*
X149796802Y-117597476D01*
X149514051Y-117511705D01*
X149220000Y-117482743D01*
X145420000Y-117482743D01*
X145125949Y-117511705D01*
X144843198Y-117597476D01*
X144582613Y-117736762D01*
X144354208Y-117924208D01*
X144166762Y-118152613D01*
X144027476Y-118413198D01*
X143941705Y-118695949D01*
X143912743Y-118990000D01*
X143912743Y-120990000D01*
X143941705Y-121284051D01*
X144027476Y-121566802D01*
X144070877Y-121648000D01*
X135906428Y-121648000D01*
X133445000Y-119186574D01*
X133445000Y-116273426D01*
X133648427Y-116070000D01*
X133746320Y-116070000D01*
X133820000Y-116077257D01*
X135420000Y-116077257D01*
X135493680Y-116070000D01*
X138826320Y-116070000D01*
X138900000Y-116077257D01*
X139675439Y-116077257D01*
X139700000Y-116079676D01*
X139724561Y-116077257D01*
X140500000Y-116077257D01*
X140573680Y-116070000D01*
X143669767Y-116070000D01*
X143693198Y-116082524D01*
X143975949Y-116168295D01*
X144270000Y-116197257D01*
X145770000Y-116197257D01*
X146064051Y-116168295D01*
X146170000Y-116136156D01*
X146275949Y-116168295D01*
X146570000Y-116197257D01*
X148070000Y-116197257D01*
X148364051Y-116168295D01*
X148646802Y-116082524D01*
X148907387Y-115943238D01*
X149135792Y-115755792D01*
X149323238Y-115527387D01*
X149462524Y-115266802D01*
X149548295Y-114984051D01*
X149577257Y-114690000D01*
X149577257Y-112690000D01*
X149548295Y-112395949D01*
X149462524Y-112113198D01*
X149323238Y-111852613D01*
X149320000Y-111848667D01*
X149320000Y-111223242D01*
X149329676Y-111124999D01*
X149320000Y-111026756D01*
X149320000Y-110928017D01*
X149314867Y-110902212D01*
X162838000Y-110902212D01*
X162838000Y-111347788D01*
X162924927Y-111784801D01*
X163065842Y-112125000D01*
X162924927Y-112465199D01*
X162838000Y-112902212D01*
X162838000Y-113347788D01*
X162924927Y-113784801D01*
X163065842Y-114125000D01*
X162924927Y-114465199D01*
X162838000Y-114902212D01*
X162838000Y-115347788D01*
X162924927Y-115784801D01*
X163095441Y-116196459D01*
X163342990Y-116566941D01*
X163658059Y-116882010D01*
X164028541Y-117129559D01*
X164440199Y-117300073D01*
X164877212Y-117387000D01*
X165322788Y-117387000D01*
X165759801Y-117300073D01*
X166171459Y-117129559D01*
X166541941Y-116882010D01*
X166857010Y-116566941D01*
X167104559Y-116196459D01*
X167275073Y-115784801D01*
X167362000Y-115347788D01*
X167362000Y-114902212D01*
X167275073Y-114465199D01*
X167134158Y-114125000D01*
X167275073Y-113784801D01*
X167362000Y-113347788D01*
X167362000Y-112902212D01*
X167275073Y-112465199D01*
X167134158Y-112125000D01*
X167275073Y-111784801D01*
X167362000Y-111347788D01*
X167362000Y-110902212D01*
X172363000Y-110902212D01*
X172363000Y-111347788D01*
X172449927Y-111784801D01*
X172590842Y-112125000D01*
X172449927Y-112465199D01*
X172363000Y-112902212D01*
X172363000Y-113347788D01*
X172449927Y-113784801D01*
X172590842Y-114125000D01*
X172449927Y-114465199D01*
X172363000Y-114902212D01*
X172363000Y-115347788D01*
X172449927Y-115784801D01*
X172620441Y-116196459D01*
X172867990Y-116566941D01*
X173183059Y-116882010D01*
X173553541Y-117129559D01*
X173965199Y-117300073D01*
X174402212Y-117387000D01*
X174847788Y-117387000D01*
X175284801Y-117300073D01*
X175696459Y-117129559D01*
X176066941Y-116882010D01*
X176382010Y-116566941D01*
X176629559Y-116196459D01*
X176800073Y-115784801D01*
X176887000Y-115347788D01*
X176887000Y-114902212D01*
X176800073Y-114465199D01*
X176659158Y-114125000D01*
X176800073Y-113784801D01*
X176887000Y-113347788D01*
X176887000Y-112902212D01*
X176800073Y-112465199D01*
X176659158Y-112125000D01*
X176800073Y-111784801D01*
X176887000Y-111347788D01*
X176887000Y-110902212D01*
X176800073Y-110465199D01*
X176629559Y-110053541D01*
X176382010Y-109683059D01*
X176066941Y-109367990D01*
X175696459Y-109120441D01*
X175284801Y-108949927D01*
X174847788Y-108863000D01*
X174402212Y-108863000D01*
X173965199Y-108949927D01*
X173553541Y-109120441D01*
X173183059Y-109367990D01*
X172867990Y-109683059D01*
X172620441Y-110053541D01*
X172449927Y-110465199D01*
X172363000Y-110902212D01*
X167362000Y-110902212D01*
X167275073Y-110465199D01*
X167104559Y-110053541D01*
X166857010Y-109683059D01*
X166541941Y-109367990D01*
X166171459Y-109120441D01*
X165759801Y-108949927D01*
X165322788Y-108863000D01*
X164877212Y-108863000D01*
X164440199Y-108949927D01*
X164028541Y-109120441D01*
X163658059Y-109367990D01*
X163342990Y-109683059D01*
X163095441Y-110053541D01*
X162924927Y-110465199D01*
X162838000Y-110902212D01*
X149314867Y-110902212D01*
X149300739Y-110831187D01*
X149291062Y-110732931D01*
X149262402Y-110638451D01*
X149243141Y-110541622D01*
X149205358Y-110450407D01*
X149176699Y-110355930D01*
X149130160Y-110268862D01*
X149092377Y-110177645D01*
X149037525Y-110095553D01*
X148990985Y-110008483D01*
X148928353Y-109932166D01*
X148873501Y-109850074D01*
X148803687Y-109780260D01*
X148741056Y-109703944D01*
X148664740Y-109641313D01*
X148594926Y-109571499D01*
X147820000Y-108796574D01*
X147820000Y-107553680D01*
X147827257Y-107480000D01*
X147827257Y-105880000D01*
X147820000Y-105806320D01*
X147820000Y-102473680D01*
X147827257Y-102400000D01*
X147827257Y-100800000D01*
X147798295Y-100505949D01*
X147712524Y-100223198D01*
X147573238Y-99962613D01*
X147385792Y-99734208D01*
X147157387Y-99546762D01*
X146896802Y-99407476D01*
X146614051Y-99321705D01*
X146320000Y-99292743D01*
X145320000Y-99292743D01*
X145025949Y-99321705D01*
X144743198Y-99407476D01*
X144482613Y-99546762D01*
X144254208Y-99734208D01*
X144066762Y-99962613D01*
X143927476Y-100223198D01*
X143841705Y-100505949D01*
X143812743Y-100800000D01*
X143812743Y-102400000D01*
X143820000Y-102473682D01*
X143820001Y-105806311D01*
X143812743Y-105880000D01*
X143812743Y-107480000D01*
X143820000Y-107553683D01*
X143820001Y-109526748D01*
X143810324Y-109625000D01*
X143820001Y-109723253D01*
X143848939Y-110017069D01*
X143873469Y-110097932D01*
X143963301Y-110394069D01*
X144149015Y-110741516D01*
X144302073Y-110928017D01*
X144398945Y-111046056D01*
X144475261Y-111108687D01*
X144549317Y-111182743D01*
X144270000Y-111182743D01*
X143975949Y-111211705D01*
X143693198Y-111297476D01*
X143432613Y-111436762D01*
X143204208Y-111624208D01*
X143150214Y-111690000D01*
X140178242Y-111690000D01*
X140079999Y-111680324D01*
X139981756Y-111690000D01*
X139981747Y-111690000D01*
X139687931Y-111718938D01*
X139310930Y-111833301D01*
X138963483Y-112019015D01*
X138910200Y-112062743D01*
X138900000Y-112062743D01*
X138826320Y-112070000D01*
X135493680Y-112070000D01*
X135420000Y-112062743D01*
X133820000Y-112062743D01*
X133746320Y-112070000D01*
X132918243Y-112070000D01*
X132820000Y-112060324D01*
X132721757Y-112070000D01*
X132721747Y-112070000D01*
X132427931Y-112098938D01*
X132058753Y-112210928D01*
X132050930Y-112213301D01*
X131703483Y-112399014D01*
X131490893Y-112573483D01*
X131398944Y-112648944D01*
X131336313Y-112725261D01*
X130100265Y-113961309D01*
X130023944Y-114023944D01*
X129774015Y-114328483D01*
X129588301Y-114675931D01*
X129473938Y-115052932D01*
X129445000Y-115346748D01*
X129445000Y-115346757D01*
X129435324Y-115445000D01*
X129445000Y-115543243D01*
X129445001Y-119916747D01*
X129435324Y-120015000D01*
X129473939Y-120407068D01*
X129588301Y-120784069D01*
X129774015Y-121131516D01*
X129899198Y-121284051D01*
X130023945Y-121436056D01*
X130100261Y-121498687D01*
X132781573Y-124180000D01*
X79655000Y-124180000D01*
X79655000Y-107092212D01*
X85368000Y-107092212D01*
X85368000Y-107537788D01*
X85454927Y-107974801D01*
X85595842Y-108315000D01*
X85454927Y-108655199D01*
X85368000Y-109092212D01*
X85368000Y-109537788D01*
X85454927Y-109974801D01*
X85595842Y-110315000D01*
X85454927Y-110655199D01*
X85368000Y-111092212D01*
X85368000Y-111537788D01*
X85454927Y-111974801D01*
X85595842Y-112315000D01*
X85454927Y-112655199D01*
X85368000Y-113092212D01*
X85368000Y-113537788D01*
X85454927Y-113974801D01*
X85595842Y-114315000D01*
X85454927Y-114655199D01*
X85368000Y-115092212D01*
X85368000Y-115537788D01*
X85454927Y-115974801D01*
X85625441Y-116386459D01*
X85872990Y-116756941D01*
X86188059Y-117072010D01*
X86558541Y-117319559D01*
X86970199Y-117490073D01*
X87407212Y-117577000D01*
X87852788Y-117577000D01*
X88289801Y-117490073D01*
X88701459Y-117319559D01*
X89071941Y-117072010D01*
X89387010Y-116756941D01*
X89634559Y-116386459D01*
X89805073Y-115974801D01*
X89892000Y-115537788D01*
X89892000Y-115323987D01*
X89983243Y-115315000D01*
X89983253Y-115315000D01*
X90277069Y-115286062D01*
X90654070Y-115171699D01*
X91001517Y-114985985D01*
X91306056Y-114736056D01*
X91368691Y-114659735D01*
X94893000Y-111135427D01*
X94893000Y-111347788D01*
X94979927Y-111784801D01*
X95120842Y-112125000D01*
X94979927Y-112465199D01*
X94893000Y-112902212D01*
X94893000Y-113347788D01*
X94979927Y-113784801D01*
X95120842Y-114125000D01*
X94979927Y-114465199D01*
X94893000Y-114902212D01*
X94893000Y-115347788D01*
X94979927Y-115784801D01*
X95150441Y-116196459D01*
X95397990Y-116566941D01*
X95713059Y-116882010D01*
X96083541Y-117129559D01*
X96495199Y-117300073D01*
X96932212Y-117387000D01*
X97377788Y-117387000D01*
X97814801Y-117300073D01*
X98226459Y-117129559D01*
X98596941Y-116882010D01*
X98912010Y-116566941D01*
X99159559Y-116196459D01*
X99330073Y-115784801D01*
X99417000Y-115347788D01*
X99417000Y-114902212D01*
X99330073Y-114465199D01*
X99189158Y-114125000D01*
X99330073Y-113784801D01*
X99417000Y-113347788D01*
X99417000Y-112902212D01*
X99330073Y-112465199D01*
X99189158Y-112125000D01*
X99330073Y-111784801D01*
X99417000Y-111347788D01*
X99417000Y-110902212D01*
X99330073Y-110465199D01*
X99159559Y-110053541D01*
X98996844Y-109810022D01*
X104393156Y-109810022D01*
X104230441Y-110053541D01*
X104059927Y-110465199D01*
X103973000Y-110902212D01*
X103973000Y-111347788D01*
X104059927Y-111784801D01*
X104200842Y-112125000D01*
X104059927Y-112465199D01*
X103973000Y-112902212D01*
X103973000Y-113347788D01*
X104059927Y-113784801D01*
X104200842Y-114125000D01*
X104059927Y-114465199D01*
X103973000Y-114902212D01*
X103973000Y-115347788D01*
X104059927Y-115784801D01*
X104230441Y-116196459D01*
X104477990Y-116566941D01*
X104793059Y-116882010D01*
X105163541Y-117129559D01*
X105575199Y-117300073D01*
X106012212Y-117387000D01*
X106457788Y-117387000D01*
X106894801Y-117300073D01*
X107306459Y-117129559D01*
X107676941Y-116882010D01*
X107992010Y-116566941D01*
X108239559Y-116196459D01*
X108410073Y-115784801D01*
X108497000Y-115347788D01*
X108497000Y-114902212D01*
X108410073Y-114465199D01*
X108269158Y-114125000D01*
X108410073Y-113784801D01*
X108497000Y-113347788D01*
X108497000Y-112902212D01*
X108410073Y-112465199D01*
X108269158Y-112125000D01*
X108410073Y-111784801D01*
X108411674Y-111776753D01*
X108968427Y-111220000D01*
X112673000Y-111220000D01*
X112673000Y-111347788D01*
X112759927Y-111784801D01*
X112900842Y-112125000D01*
X112759927Y-112465199D01*
X112673000Y-112902212D01*
X112673000Y-113347788D01*
X112759927Y-113784801D01*
X112900842Y-114125000D01*
X112759927Y-114465199D01*
X112673000Y-114902212D01*
X112673000Y-115347788D01*
X112759927Y-115784801D01*
X112930441Y-116196459D01*
X113177990Y-116566941D01*
X113493059Y-116882010D01*
X113863541Y-117129559D01*
X114275199Y-117300073D01*
X114712212Y-117387000D01*
X115157788Y-117387000D01*
X115594801Y-117300073D01*
X116006459Y-117129559D01*
X116376941Y-116882010D01*
X116692010Y-116566941D01*
X116939559Y-116196459D01*
X117110073Y-115784801D01*
X117197000Y-115347788D01*
X117197000Y-114902212D01*
X117110073Y-114465199D01*
X116969158Y-114125000D01*
X117110073Y-113784801D01*
X117197000Y-113347788D01*
X117197000Y-112902212D01*
X117110073Y-112465199D01*
X116969158Y-112125000D01*
X117110073Y-111784801D01*
X117197000Y-111347788D01*
X117197000Y-111220000D01*
X120928000Y-111220000D01*
X120928000Y-111347788D01*
X121014927Y-111784801D01*
X121155842Y-112125000D01*
X121014927Y-112465199D01*
X120928000Y-112902212D01*
X120928000Y-113347788D01*
X121014927Y-113784801D01*
X121155842Y-114125000D01*
X121014927Y-114465199D01*
X120928000Y-114902212D01*
X120928000Y-115347788D01*
X121014927Y-115784801D01*
X121185441Y-116196459D01*
X121432990Y-116566941D01*
X121748059Y-116882010D01*
X122118541Y-117129559D01*
X122530199Y-117300073D01*
X122967212Y-117387000D01*
X123412788Y-117387000D01*
X123849801Y-117300073D01*
X124261459Y-117129559D01*
X124631941Y-116882010D01*
X124947010Y-116566941D01*
X125194559Y-116196459D01*
X125365073Y-115784801D01*
X125452000Y-115347788D01*
X125452000Y-114902212D01*
X125365073Y-114465199D01*
X125224158Y-114125000D01*
X125365073Y-113784801D01*
X125452000Y-113347788D01*
X125452000Y-112902212D01*
X125365073Y-112465199D01*
X125224158Y-112125000D01*
X125365073Y-111784801D01*
X125452000Y-111347788D01*
X125452000Y-110902212D01*
X125365073Y-110465199D01*
X125194559Y-110053541D01*
X124947010Y-109683059D01*
X124631941Y-109367990D01*
X124261459Y-109120441D01*
X124235112Y-109109528D01*
X128979740Y-104364900D01*
X129056056Y-104302269D01*
X129118689Y-104225951D01*
X129305986Y-103997730D01*
X129491699Y-103650283D01*
X129506180Y-103602545D01*
X129606062Y-103273282D01*
X129635000Y-102979466D01*
X129635000Y-102979456D01*
X129644676Y-102881213D01*
X129635000Y-102782970D01*
X129635000Y-99888426D01*
X131003427Y-98520000D01*
X131645298Y-98520000D01*
X131623630Y-98740000D01*
X131669003Y-99200680D01*
X131803379Y-99643657D01*
X132021593Y-100051907D01*
X132118509Y-100170000D01*
X132021593Y-100288093D01*
X131803379Y-100696343D01*
X131669003Y-101139320D01*
X131623630Y-101600000D01*
X131669003Y-102060680D01*
X131803379Y-102503657D01*
X131999193Y-102870000D01*
X131803379Y-103236343D01*
X131669003Y-103679320D01*
X131623630Y-104140000D01*
X131669003Y-104600680D01*
X131803379Y-105043657D01*
X132021593Y-105451907D01*
X132315259Y-105809741D01*
X132673093Y-106103407D01*
X133081343Y-106321621D01*
X133524320Y-106455997D01*
X133869558Y-106490000D01*
X134100442Y-106490000D01*
X134445680Y-106455997D01*
X134888657Y-106321621D01*
X135296907Y-106103407D01*
X135654741Y-105809741D01*
X135948407Y-105451907D01*
X136166621Y-105043657D01*
X136300997Y-104600680D01*
X136346370Y-104140000D01*
X136300997Y-103679320D01*
X136166621Y-103236343D01*
X135970807Y-102870000D01*
X136166621Y-102503657D01*
X136300997Y-102060680D01*
X136346370Y-101600000D01*
X136300997Y-101139320D01*
X136166621Y-100696343D01*
X135948407Y-100288093D01*
X135851491Y-100170000D01*
X135948407Y-100051907D01*
X136166621Y-99643657D01*
X136300997Y-99200680D01*
X136346370Y-98740000D01*
X136300997Y-98279320D01*
X136166621Y-97836343D01*
X136056328Y-97630000D01*
X136166621Y-97423657D01*
X136300997Y-96980680D01*
X136346370Y-96520000D01*
X136300997Y-96059320D01*
X136166621Y-95616343D01*
X135970807Y-95250000D01*
X136166621Y-94883657D01*
X136300997Y-94440680D01*
X136346370Y-93980000D01*
X136300997Y-93519320D01*
X136166621Y-93076343D01*
X135970807Y-92710000D01*
X136166621Y-92343657D01*
X136300997Y-91900680D01*
X136346370Y-91440000D01*
X136300997Y-90979320D01*
X136166621Y-90536343D01*
X135970807Y-90170000D01*
X136166621Y-89803657D01*
X136300997Y-89360680D01*
X136346370Y-88900000D01*
X136300997Y-88439320D01*
X136166621Y-87996343D01*
X135970807Y-87630000D01*
X136166621Y-87263657D01*
X136300997Y-86820680D01*
X136346370Y-86360000D01*
X136300997Y-85899320D01*
X136166621Y-85456343D01*
X135970807Y-85090000D01*
X136166621Y-84723657D01*
X136300997Y-84280680D01*
X136346370Y-83820000D01*
X136300997Y-83359320D01*
X136166621Y-82916343D01*
X135970807Y-82550000D01*
X136166621Y-82183657D01*
X136300997Y-81740680D01*
X136346370Y-81280000D01*
X136300997Y-80819320D01*
X136166621Y-80376343D01*
X135970807Y-80010000D01*
X136166621Y-79643657D01*
X136300997Y-79200680D01*
X136346370Y-78740000D01*
X136300997Y-78279320D01*
X136166621Y-77836343D01*
X135970807Y-77470000D01*
X136166621Y-77103657D01*
X136300997Y-76660680D01*
X136346370Y-76200000D01*
X136300997Y-75739320D01*
X136166621Y-75296343D01*
X135970807Y-74930000D01*
X136166621Y-74563657D01*
X136300997Y-74120680D01*
X136346370Y-73660000D01*
X136300997Y-73199320D01*
X136166621Y-72756343D01*
X135970807Y-72390000D01*
X136166621Y-72023657D01*
X136300997Y-71580680D01*
X136346370Y-71120000D01*
X136300997Y-70659320D01*
X136166621Y-70216343D01*
X135970807Y-69850000D01*
X136166621Y-69483657D01*
X136300997Y-69040680D01*
X136346370Y-68580000D01*
X136300997Y-68119320D01*
X136166621Y-67676343D01*
X135948407Y-67268093D01*
X135654741Y-66910259D01*
X135296907Y-66616593D01*
X134888657Y-66398379D01*
X134445680Y-66264003D01*
X134100442Y-66230000D01*
X133869558Y-66230000D01*
X133524320Y-66264003D01*
X133081343Y-66398379D01*
X132673093Y-66616593D01*
X132315259Y-66910259D01*
X132021593Y-67268093D01*
X131803379Y-67676343D01*
X131669003Y-68119320D01*
X131623630Y-68580000D01*
X131669003Y-69040680D01*
X131803379Y-69483657D01*
X131999193Y-69850000D01*
X131803379Y-70216343D01*
X131669003Y-70659320D01*
X131623630Y-71120000D01*
X131669003Y-71580680D01*
X131803379Y-72023657D01*
X131999193Y-72390000D01*
X131803379Y-72756343D01*
X131669003Y-73199320D01*
X131623630Y-73660000D01*
X131669003Y-74120680D01*
X131803379Y-74563657D01*
X131999193Y-74930000D01*
X131803379Y-75296343D01*
X131669003Y-75739320D01*
X131623630Y-76200000D01*
X131669003Y-76660680D01*
X131803379Y-77103657D01*
X131999193Y-77470000D01*
X131803379Y-77836343D01*
X131669003Y-78279320D01*
X131623630Y-78740000D01*
X131669003Y-79200680D01*
X131693065Y-79280000D01*
X130273242Y-79280000D01*
X130174999Y-79270324D01*
X130076756Y-79280000D01*
X130076747Y-79280000D01*
X129782931Y-79308938D01*
X129405930Y-79423301D01*
X129058483Y-79609015D01*
X128753944Y-79858944D01*
X128691313Y-79935260D01*
X122480265Y-86146309D01*
X122403944Y-86208944D01*
X122154015Y-86513483D01*
X121968301Y-86860931D01*
X121853938Y-87237932D01*
X121825000Y-87531748D01*
X121825000Y-87531757D01*
X121815324Y-87630000D01*
X121825000Y-87728243D01*
X121825001Y-100771572D01*
X121528591Y-101067982D01*
X121537257Y-100980000D01*
X121537257Y-99680000D01*
X121508295Y-99385949D01*
X121422524Y-99103198D01*
X121283238Y-98842613D01*
X121095792Y-98614208D01*
X120867387Y-98426762D01*
X120606802Y-98287476D01*
X120324051Y-98201705D01*
X120030000Y-98172743D01*
X118730000Y-98172743D01*
X118435949Y-98201705D01*
X118153198Y-98287476D01*
X117892613Y-98426762D01*
X117664208Y-98614208D01*
X117476762Y-98842613D01*
X117337476Y-99103198D01*
X117251705Y-99385949D01*
X117222743Y-99680000D01*
X117222743Y-100980000D01*
X117251705Y-101274051D01*
X117337476Y-101556802D01*
X117476762Y-101817387D01*
X117664208Y-102045792D01*
X117892613Y-102233238D01*
X118153198Y-102372524D01*
X118435949Y-102458295D01*
X118730000Y-102487257D01*
X120030000Y-102487257D01*
X120117982Y-102478591D01*
X119186574Y-103410000D01*
X89633243Y-103410000D01*
X89535000Y-103400324D01*
X89436757Y-103410000D01*
X89436747Y-103410000D01*
X89142931Y-103438938D01*
X88765930Y-103553301D01*
X88418483Y-103739014D01*
X88190261Y-103926311D01*
X88190254Y-103926318D01*
X88113944Y-103988944D01*
X88051317Y-104065255D01*
X86978247Y-105138326D01*
X86970199Y-105139927D01*
X86558541Y-105310441D01*
X86188059Y-105557990D01*
X85872990Y-105873059D01*
X85625441Y-106243541D01*
X85454927Y-106655199D01*
X85368000Y-107092212D01*
X79655000Y-107092212D01*
X79655000Y-97020000D01*
X94119467Y-97020000D01*
X99110393Y-102010927D01*
X99188680Y-102106320D01*
X99569354Y-102418731D01*
X100003662Y-102650874D01*
X100474914Y-102793827D01*
X100842187Y-102830000D01*
X100842196Y-102830000D01*
X100964999Y-102842095D01*
X101087802Y-102830000D01*
X101722813Y-102830000D01*
X102090086Y-102793827D01*
X102561338Y-102650874D01*
X102995646Y-102418731D01*
X103376320Y-102106320D01*
X103381507Y-102100000D01*
X107315000Y-102100000D01*
X107412545Y-102090393D01*
X107506342Y-102061940D01*
X107592785Y-102015735D01*
X107668553Y-101953553D01*
X107730735Y-101877785D01*
X107776940Y-101791342D01*
X107805393Y-101697545D01*
X107815000Y-101600000D01*
X107815000Y-95038243D01*
X117230000Y-95038243D01*
X117230000Y-95461757D01*
X117312623Y-95877132D01*
X117474695Y-96268407D01*
X117709986Y-96620545D01*
X118009455Y-96920014D01*
X118361593Y-97155305D01*
X118752868Y-97317377D01*
X119168243Y-97400000D01*
X119591757Y-97400000D01*
X120007132Y-97317377D01*
X120398407Y-97155305D01*
X120750545Y-96920014D01*
X121050014Y-96620545D01*
X121285305Y-96268407D01*
X121447377Y-95877132D01*
X121530000Y-95461757D01*
X121530000Y-95038243D01*
X121447377Y-94622868D01*
X121285305Y-94231593D01*
X121050014Y-93879455D01*
X120750545Y-93579986D01*
X120398407Y-93344695D01*
X120007132Y-93182623D01*
X119591757Y-93100000D01*
X119168243Y-93100000D01*
X118752868Y-93182623D01*
X118361593Y-93344695D01*
X118009455Y-93579986D01*
X117709986Y-93879455D01*
X117474695Y-94231593D01*
X117312623Y-94622868D01*
X117230000Y-95038243D01*
X107815000Y-95038243D01*
X107815000Y-86726000D01*
X117222743Y-86726000D01*
X117222743Y-88026000D01*
X117251705Y-88320051D01*
X117337476Y-88602802D01*
X117476762Y-88863387D01*
X117664208Y-89091792D01*
X117892613Y-89279238D01*
X118153198Y-89418524D01*
X118435949Y-89504295D01*
X118730000Y-89533257D01*
X120030000Y-89533257D01*
X120324051Y-89504295D01*
X120606802Y-89418524D01*
X120867387Y-89279238D01*
X121095792Y-89091792D01*
X121283238Y-88863387D01*
X121422524Y-88602802D01*
X121508295Y-88320051D01*
X121537257Y-88026000D01*
X121537257Y-86726000D01*
X121508295Y-86431949D01*
X121422524Y-86149198D01*
X121283238Y-85888613D01*
X121095792Y-85660208D01*
X120867387Y-85472762D01*
X120606802Y-85333476D01*
X120324051Y-85247705D01*
X120030000Y-85218743D01*
X118730000Y-85218743D01*
X118435949Y-85247705D01*
X118153198Y-85333476D01*
X117892613Y-85472762D01*
X117664208Y-85660208D01*
X117476762Y-85888613D01*
X117337476Y-86149198D01*
X117251705Y-86431949D01*
X117222743Y-86726000D01*
X107815000Y-86726000D01*
X107815000Y-82084243D01*
X117230000Y-82084243D01*
X117230000Y-82507757D01*
X117312623Y-82923132D01*
X117474695Y-83314407D01*
X117709986Y-83666545D01*
X118009455Y-83966014D01*
X118361593Y-84201305D01*
X118752868Y-84363377D01*
X119168243Y-84446000D01*
X119591757Y-84446000D01*
X120007132Y-84363377D01*
X120398407Y-84201305D01*
X120750545Y-83966014D01*
X121050014Y-83666545D01*
X121285305Y-83314407D01*
X121447377Y-82923132D01*
X121530000Y-82507757D01*
X121530000Y-82084243D01*
X121447377Y-81668868D01*
X121285305Y-81277593D01*
X121050014Y-80925455D01*
X120750545Y-80625986D01*
X120398407Y-80390695D01*
X120007132Y-80228623D01*
X119591757Y-80146000D01*
X119168243Y-80146000D01*
X118752868Y-80228623D01*
X118361593Y-80390695D01*
X118009455Y-80625986D01*
X117709986Y-80925455D01*
X117474695Y-81277593D01*
X117312623Y-81668868D01*
X117230000Y-82084243D01*
X107815000Y-82084243D01*
X107815000Y-74280000D01*
X117222743Y-74280000D01*
X117222743Y-75580000D01*
X117251705Y-75874051D01*
X117337476Y-76156802D01*
X117476762Y-76417387D01*
X117664208Y-76645792D01*
X117892613Y-76833238D01*
X118153198Y-76972524D01*
X118435949Y-77058295D01*
X118730000Y-77087257D01*
X120030000Y-77087257D01*
X120324051Y-77058295D01*
X120606802Y-76972524D01*
X120867387Y-76833238D01*
X121095792Y-76645792D01*
X121283238Y-76417387D01*
X121422524Y-76156802D01*
X121508295Y-75874051D01*
X121537257Y-75580000D01*
X121537257Y-74280000D01*
X121508295Y-73985949D01*
X121422524Y-73703198D01*
X121283238Y-73442613D01*
X121095792Y-73214208D01*
X120867387Y-73026762D01*
X120606802Y-72887476D01*
X120324051Y-72801705D01*
X120030000Y-72772743D01*
X118730000Y-72772743D01*
X118435949Y-72801705D01*
X118153198Y-72887476D01*
X117892613Y-73026762D01*
X117664208Y-73214208D01*
X117476762Y-73442613D01*
X117337476Y-73703198D01*
X117251705Y-73985949D01*
X117222743Y-74280000D01*
X107815000Y-74280000D01*
X107815000Y-69638243D01*
X117230000Y-69638243D01*
X117230000Y-70061757D01*
X117312623Y-70477132D01*
X117474695Y-70868407D01*
X117709986Y-71220545D01*
X118009455Y-71520014D01*
X118361593Y-71755305D01*
X118752868Y-71917377D01*
X119168243Y-72000000D01*
X119591757Y-72000000D01*
X120007132Y-71917377D01*
X120398407Y-71755305D01*
X120750545Y-71520014D01*
X121050014Y-71220545D01*
X121285305Y-70868407D01*
X121447377Y-70477132D01*
X121530000Y-70061757D01*
X121530000Y-69638243D01*
X121447377Y-69222868D01*
X121285305Y-68831593D01*
X121050014Y-68479455D01*
X120750545Y-68179986D01*
X120398407Y-67944695D01*
X120007132Y-67782623D01*
X119591757Y-67700000D01*
X119168243Y-67700000D01*
X118752868Y-67782623D01*
X118361593Y-67944695D01*
X118009455Y-68179986D01*
X117709986Y-68479455D01*
X117474695Y-68831593D01*
X117312623Y-69222868D01*
X117230000Y-69638243D01*
X107815000Y-69638243D01*
X107815000Y-61580000D01*
X117222743Y-61580000D01*
X117222743Y-62880000D01*
X117251705Y-63174051D01*
X117337476Y-63456802D01*
X117476762Y-63717387D01*
X117664208Y-63945792D01*
X117892613Y-64133238D01*
X118153198Y-64272524D01*
X118435949Y-64358295D01*
X118730000Y-64387257D01*
X120030000Y-64387257D01*
X120324051Y-64358295D01*
X120606802Y-64272524D01*
X120867387Y-64133238D01*
X121095792Y-63945792D01*
X121283238Y-63717387D01*
X121422524Y-63456802D01*
X121508295Y-63174051D01*
X121537257Y-62880000D01*
X121537257Y-61580000D01*
X121508295Y-61285949D01*
X121422524Y-61003198D01*
X121399435Y-60960000D01*
X131623630Y-60960000D01*
X131669003Y-61420680D01*
X131803379Y-61863657D01*
X131977813Y-62190000D01*
X131803379Y-62516343D01*
X131669003Y-62959320D01*
X131623630Y-63420000D01*
X131669003Y-63880680D01*
X131803379Y-64323657D01*
X132021593Y-64731907D01*
X132315259Y-65089741D01*
X132673093Y-65383407D01*
X133081343Y-65601621D01*
X133524320Y-65735997D01*
X133869558Y-65770000D01*
X134100442Y-65770000D01*
X134445680Y-65735997D01*
X134888657Y-65601621D01*
X135296907Y-65383407D01*
X135654741Y-65089741D01*
X135948407Y-64731907D01*
X136166621Y-64323657D01*
X136300997Y-63880680D01*
X136346370Y-63420000D01*
X136300997Y-62959320D01*
X136166621Y-62516343D01*
X135992187Y-62190000D01*
X136166621Y-61863657D01*
X136300997Y-61420680D01*
X136346370Y-60960000D01*
X136300997Y-60499320D01*
X136166621Y-60056343D01*
X136141071Y-60008543D01*
X136227524Y-59846802D01*
X136313295Y-59564051D01*
X136342257Y-59270000D01*
X136342257Y-58690000D01*
X140222743Y-58690000D01*
X140222743Y-60690000D01*
X140251705Y-60984051D01*
X140337476Y-61266802D01*
X140476762Y-61527387D01*
X140480000Y-61531333D01*
X140480001Y-63794782D01*
X140462743Y-63970000D01*
X140462743Y-64745439D01*
X140460324Y-64770000D01*
X140462743Y-64794561D01*
X140462743Y-65570000D01*
X140470001Y-65643688D01*
X140470000Y-68341318D01*
X140462743Y-68415000D01*
X140462743Y-70015000D01*
X140470001Y-70088688D01*
X140470000Y-72521757D01*
X140460324Y-72620000D01*
X140470000Y-72718243D01*
X140470000Y-72718252D01*
X140498938Y-73012068D01*
X140613301Y-73389069D01*
X140799015Y-73736517D01*
X141048944Y-74041056D01*
X141125265Y-74103691D01*
X143296313Y-76274740D01*
X143358944Y-76351056D01*
X143435260Y-76413687D01*
X143435261Y-76413688D01*
X143662300Y-76600014D01*
X143663483Y-76600985D01*
X144010930Y-76786699D01*
X144387931Y-76901062D01*
X144681747Y-76930000D01*
X144681756Y-76930000D01*
X144779999Y-76939676D01*
X144878242Y-76930000D01*
X150396757Y-76930000D01*
X150495000Y-76939676D01*
X150593243Y-76930000D01*
X150593253Y-76930000D01*
X150887069Y-76901062D01*
X151264070Y-76786699D01*
X151611517Y-76600985D01*
X151916056Y-76351056D01*
X151978691Y-76274735D01*
X154493474Y-73759952D01*
X154529003Y-74120680D01*
X154663379Y-74563657D01*
X154859193Y-74930000D01*
X154663379Y-75296343D01*
X154529003Y-75739320D01*
X154483630Y-76200000D01*
X154529003Y-76660680D01*
X154663379Y-77103657D01*
X154859193Y-77470000D01*
X154663379Y-77836343D01*
X154529003Y-78279320D01*
X154483630Y-78740000D01*
X154529003Y-79200680D01*
X154663379Y-79643657D01*
X154859193Y-80010000D01*
X154663379Y-80376343D01*
X154529003Y-80819320D01*
X154483630Y-81280000D01*
X154529003Y-81740680D01*
X154663379Y-82183657D01*
X154859193Y-82550000D01*
X154663379Y-82916343D01*
X154529003Y-83359320D01*
X154483630Y-83820000D01*
X154529003Y-84280680D01*
X154663379Y-84723657D01*
X154859193Y-85090000D01*
X154663379Y-85456343D01*
X154529003Y-85899320D01*
X154483630Y-86360000D01*
X154529003Y-86820680D01*
X154663379Y-87263657D01*
X154859193Y-87630000D01*
X154663379Y-87996343D01*
X154529003Y-88439320D01*
X154483630Y-88900000D01*
X154529003Y-89360680D01*
X154663379Y-89803657D01*
X154859193Y-90170000D01*
X154663379Y-90536343D01*
X154529003Y-90979320D01*
X154483630Y-91440000D01*
X154529003Y-91900680D01*
X154663379Y-92343657D01*
X154859193Y-92710000D01*
X154663379Y-93076343D01*
X154529003Y-93519320D01*
X154483630Y-93980000D01*
X154529003Y-94440680D01*
X154663379Y-94883657D01*
X154859193Y-95250000D01*
X154663379Y-95616343D01*
X154529003Y-96059320D01*
X154483630Y-96520000D01*
X154529003Y-96980680D01*
X154663379Y-97423657D01*
X154859193Y-97790000D01*
X154663379Y-98156343D01*
X154529003Y-98599320D01*
X154483630Y-99060000D01*
X154529003Y-99520680D01*
X154663379Y-99963657D01*
X154859193Y-100330000D01*
X154663379Y-100696343D01*
X154529003Y-101139320D01*
X154483630Y-101600000D01*
X154529003Y-102060680D01*
X154663379Y-102503657D01*
X154859193Y-102870000D01*
X154663379Y-103236343D01*
X154529003Y-103679320D01*
X154483630Y-104140000D01*
X154529003Y-104600680D01*
X154663379Y-105043657D01*
X154859193Y-105410000D01*
X154663379Y-105776343D01*
X154529003Y-106219320D01*
X154483630Y-106680000D01*
X154529003Y-107140680D01*
X154663379Y-107583657D01*
X154881593Y-107991907D01*
X155175259Y-108349741D01*
X155533093Y-108643407D01*
X155941343Y-108861621D01*
X156384320Y-108995997D01*
X156729558Y-109030000D01*
X156960442Y-109030000D01*
X157305680Y-108995997D01*
X157748657Y-108861621D01*
X158156907Y-108643407D01*
X158514741Y-108349741D01*
X158808407Y-107991907D01*
X159026621Y-107583657D01*
X159160997Y-107140680D01*
X159206370Y-106680000D01*
X159160997Y-106219320D01*
X159026621Y-105776343D01*
X158830807Y-105410000D01*
X159026621Y-105043657D01*
X159160997Y-104600680D01*
X159206370Y-104140000D01*
X159160997Y-103679320D01*
X159026621Y-103236343D01*
X158830807Y-102870000D01*
X159026621Y-102503657D01*
X159160997Y-102060680D01*
X159206370Y-101600000D01*
X159160997Y-101139320D01*
X159026621Y-100696343D01*
X158830807Y-100330000D01*
X159026621Y-99963657D01*
X159160997Y-99520680D01*
X159206370Y-99060000D01*
X159160997Y-98599320D01*
X159026621Y-98156343D01*
X158830807Y-97790000D01*
X158943993Y-97578243D01*
X171205000Y-97578243D01*
X171205000Y-98001757D01*
X171287623Y-98417132D01*
X171449695Y-98808407D01*
X171684986Y-99160545D01*
X171984455Y-99460014D01*
X172336593Y-99695305D01*
X172727868Y-99857377D01*
X173143243Y-99940000D01*
X173566757Y-99940000D01*
X173982132Y-99857377D01*
X174373407Y-99695305D01*
X174725545Y-99460014D01*
X175025014Y-99160545D01*
X175260305Y-98808407D01*
X175422377Y-98417132D01*
X175505000Y-98001757D01*
X175505000Y-97578243D01*
X175422377Y-97162868D01*
X175260305Y-96771593D01*
X175025014Y-96419455D01*
X174725545Y-96119986D01*
X174373407Y-95884695D01*
X173982132Y-95722623D01*
X173566757Y-95640000D01*
X173143243Y-95640000D01*
X172727868Y-95722623D01*
X172336593Y-95884695D01*
X171984455Y-96119986D01*
X171684986Y-96419455D01*
X171449695Y-96771593D01*
X171287623Y-97162868D01*
X171205000Y-97578243D01*
X158943993Y-97578243D01*
X159026621Y-97423657D01*
X159160997Y-96980680D01*
X159206370Y-96520000D01*
X159160997Y-96059320D01*
X159026621Y-95616343D01*
X158830807Y-95250000D01*
X159026621Y-94883657D01*
X159160997Y-94440680D01*
X159206370Y-93980000D01*
X159160997Y-93519320D01*
X159026621Y-93076343D01*
X158830807Y-92710000D01*
X159026621Y-92343657D01*
X159112667Y-92060000D01*
X171197743Y-92060000D01*
X171197743Y-93360000D01*
X171226705Y-93654051D01*
X171312476Y-93936802D01*
X171451762Y-94197387D01*
X171639208Y-94425792D01*
X171867613Y-94613238D01*
X172128198Y-94752524D01*
X172410949Y-94838295D01*
X172705000Y-94867257D01*
X174005000Y-94867257D01*
X174299051Y-94838295D01*
X174581802Y-94752524D01*
X174842387Y-94613238D01*
X175070792Y-94425792D01*
X175258238Y-94197387D01*
X175397524Y-93936802D01*
X175483295Y-93654051D01*
X175512257Y-93360000D01*
X175512257Y-92060000D01*
X175483295Y-91765949D01*
X175397524Y-91483198D01*
X175258238Y-91222613D01*
X175070792Y-90994208D01*
X174842387Y-90806762D01*
X174581802Y-90667476D01*
X174299051Y-90581705D01*
X174005000Y-90552743D01*
X172705000Y-90552743D01*
X172410949Y-90581705D01*
X172128198Y-90667476D01*
X171867613Y-90806762D01*
X171639208Y-90994208D01*
X171451762Y-91222613D01*
X171312476Y-91483198D01*
X171226705Y-91765949D01*
X171197743Y-92060000D01*
X159112667Y-92060000D01*
X159160997Y-91900680D01*
X159206370Y-91440000D01*
X159160997Y-90979320D01*
X159026621Y-90536343D01*
X158830807Y-90170000D01*
X159026621Y-89803657D01*
X159160997Y-89360680D01*
X159206370Y-88900000D01*
X159160997Y-88439320D01*
X159026621Y-87996343D01*
X158830807Y-87630000D01*
X159026621Y-87263657D01*
X159160997Y-86820680D01*
X159206370Y-86360000D01*
X159160997Y-85899320D01*
X159026621Y-85456343D01*
X158830807Y-85090000D01*
X158943993Y-84878243D01*
X171205000Y-84878243D01*
X171205000Y-85301757D01*
X171287623Y-85717132D01*
X171449695Y-86108407D01*
X171684986Y-86460545D01*
X171984455Y-86760014D01*
X172336593Y-86995305D01*
X172727868Y-87157377D01*
X173143243Y-87240000D01*
X173566757Y-87240000D01*
X173982132Y-87157377D01*
X174373407Y-86995305D01*
X174725545Y-86760014D01*
X175025014Y-86460545D01*
X175260305Y-86108407D01*
X175422377Y-85717132D01*
X175505000Y-85301757D01*
X175505000Y-84878243D01*
X175422377Y-84462868D01*
X175260305Y-84071593D01*
X175025014Y-83719455D01*
X174725545Y-83419986D01*
X174373407Y-83184695D01*
X173982132Y-83022623D01*
X173566757Y-82940000D01*
X173143243Y-82940000D01*
X172727868Y-83022623D01*
X172336593Y-83184695D01*
X171984455Y-83419986D01*
X171684986Y-83719455D01*
X171449695Y-84071593D01*
X171287623Y-84462868D01*
X171205000Y-84878243D01*
X158943993Y-84878243D01*
X159026621Y-84723657D01*
X159160997Y-84280680D01*
X159206370Y-83820000D01*
X159160997Y-83359320D01*
X159026621Y-82916343D01*
X158830807Y-82550000D01*
X159026621Y-82183657D01*
X159160997Y-81740680D01*
X159206370Y-81280000D01*
X159160997Y-80819320D01*
X159026621Y-80376343D01*
X158830807Y-80010000D01*
X159026621Y-79643657D01*
X159112667Y-79360000D01*
X171197743Y-79360000D01*
X171197743Y-80660000D01*
X171226705Y-80954051D01*
X171312476Y-81236802D01*
X171451762Y-81497387D01*
X171639208Y-81725792D01*
X171867613Y-81913238D01*
X172128198Y-82052524D01*
X172410949Y-82138295D01*
X172705000Y-82167257D01*
X174005000Y-82167257D01*
X174299051Y-82138295D01*
X174581802Y-82052524D01*
X174842387Y-81913238D01*
X175070792Y-81725792D01*
X175258238Y-81497387D01*
X175397524Y-81236802D01*
X175483295Y-80954051D01*
X175512257Y-80660000D01*
X175512257Y-79360000D01*
X175483295Y-79065949D01*
X175397524Y-78783198D01*
X175258238Y-78522613D01*
X175070792Y-78294208D01*
X174842387Y-78106762D01*
X174581802Y-77967476D01*
X174299051Y-77881705D01*
X174005000Y-77852743D01*
X172705000Y-77852743D01*
X172410949Y-77881705D01*
X172128198Y-77967476D01*
X171867613Y-78106762D01*
X171639208Y-78294208D01*
X171451762Y-78522613D01*
X171312476Y-78783198D01*
X171226705Y-79065949D01*
X171197743Y-79360000D01*
X159112667Y-79360000D01*
X159160997Y-79200680D01*
X159206370Y-78740000D01*
X159160997Y-78279320D01*
X159026621Y-77836343D01*
X158830807Y-77470000D01*
X159026621Y-77103657D01*
X159160997Y-76660680D01*
X159206370Y-76200000D01*
X159160997Y-75739320D01*
X159026621Y-75296343D01*
X158830807Y-74930000D01*
X159026621Y-74563657D01*
X159160997Y-74120680D01*
X159206370Y-73660000D01*
X159160997Y-73199320D01*
X159026621Y-72756343D01*
X158830807Y-72390000D01*
X158943993Y-72178243D01*
X171205000Y-72178243D01*
X171205000Y-72601757D01*
X171287623Y-73017132D01*
X171449695Y-73408407D01*
X171684986Y-73760545D01*
X171984455Y-74060014D01*
X172336593Y-74295305D01*
X172727868Y-74457377D01*
X173143243Y-74540000D01*
X173566757Y-74540000D01*
X173982132Y-74457377D01*
X174373407Y-74295305D01*
X174725545Y-74060014D01*
X175025014Y-73760545D01*
X175260305Y-73408407D01*
X175422377Y-73017132D01*
X175505000Y-72601757D01*
X175505000Y-72178243D01*
X175422377Y-71762868D01*
X175260305Y-71371593D01*
X175025014Y-71019455D01*
X174725545Y-70719986D01*
X174373407Y-70484695D01*
X173982132Y-70322623D01*
X173566757Y-70240000D01*
X173143243Y-70240000D01*
X172727868Y-70322623D01*
X172336593Y-70484695D01*
X171984455Y-70719986D01*
X171684986Y-71019455D01*
X171449695Y-71371593D01*
X171287623Y-71762868D01*
X171205000Y-72178243D01*
X158943993Y-72178243D01*
X159026621Y-72023657D01*
X159160997Y-71580680D01*
X159206370Y-71120000D01*
X159160997Y-70659320D01*
X159026621Y-70216343D01*
X158830807Y-69850000D01*
X159026621Y-69483657D01*
X159160997Y-69040680D01*
X159206370Y-68580000D01*
X159160997Y-68119320D01*
X159026621Y-67676343D01*
X158808407Y-67268093D01*
X158785418Y-67240081D01*
X158986621Y-66863657D01*
X159048399Y-66660000D01*
X171197743Y-66660000D01*
X171197743Y-67960000D01*
X171226705Y-68254051D01*
X171312476Y-68536802D01*
X171451762Y-68797387D01*
X171639208Y-69025792D01*
X171867613Y-69213238D01*
X172128198Y-69352524D01*
X172410949Y-69438295D01*
X172705000Y-69467257D01*
X174005000Y-69467257D01*
X174299051Y-69438295D01*
X174581802Y-69352524D01*
X174842387Y-69213238D01*
X175070792Y-69025792D01*
X175258238Y-68797387D01*
X175397524Y-68536802D01*
X175483295Y-68254051D01*
X175512257Y-67960000D01*
X175512257Y-66660000D01*
X175483295Y-66365949D01*
X175397524Y-66083198D01*
X175258238Y-65822613D01*
X175070792Y-65594208D01*
X174842387Y-65406762D01*
X174581802Y-65267476D01*
X174299051Y-65181705D01*
X174005000Y-65152743D01*
X172705000Y-65152743D01*
X172410949Y-65181705D01*
X172128198Y-65267476D01*
X171867613Y-65406762D01*
X171639208Y-65594208D01*
X171451762Y-65822613D01*
X171312476Y-66083198D01*
X171226705Y-66365949D01*
X171197743Y-66660000D01*
X159048399Y-66660000D01*
X159120997Y-66420680D01*
X159166370Y-65960000D01*
X159120997Y-65499320D01*
X158986621Y-65056343D01*
X158810807Y-64727417D01*
X159026621Y-64323657D01*
X159160997Y-63880680D01*
X159206370Y-63420000D01*
X159160997Y-62959320D01*
X159026621Y-62516343D01*
X158852187Y-62190000D01*
X159026621Y-61863657D01*
X159160997Y-61420680D01*
X159206370Y-60960000D01*
X159160997Y-60499320D01*
X159026621Y-60056343D01*
X158830807Y-59690000D01*
X159026621Y-59323657D01*
X159160997Y-58880680D01*
X159206370Y-58420000D01*
X159160997Y-57959320D01*
X159026621Y-57516343D01*
X158808407Y-57108093D01*
X158514741Y-56750259D01*
X158343834Y-56610000D01*
X158556573Y-56610000D01*
X159512153Y-57565581D01*
X159481762Y-57602613D01*
X159342476Y-57863198D01*
X159256705Y-58145949D01*
X159227743Y-58440000D01*
X159227743Y-60940000D01*
X159256705Y-61234051D01*
X159342476Y-61516802D01*
X159481762Y-61777387D01*
X159669208Y-62005792D01*
X159897613Y-62193238D01*
X160158198Y-62332524D01*
X160440949Y-62418295D01*
X160735000Y-62447257D01*
X162735000Y-62447257D01*
X163029051Y-62418295D01*
X163311802Y-62332524D01*
X163572387Y-62193238D01*
X163735000Y-62059786D01*
X163897613Y-62193238D01*
X164158198Y-62332524D01*
X164440949Y-62418295D01*
X164735000Y-62447257D01*
X166735000Y-62447257D01*
X167029051Y-62418295D01*
X167311802Y-62332524D01*
X167572387Y-62193238D01*
X167800792Y-62005792D01*
X167988238Y-61777387D01*
X168127524Y-61516802D01*
X168213295Y-61234051D01*
X168242257Y-60940000D01*
X168242257Y-59478243D01*
X171205000Y-59478243D01*
X171205000Y-59901757D01*
X171287623Y-60317132D01*
X171449695Y-60708407D01*
X171684986Y-61060545D01*
X171984455Y-61360014D01*
X172336593Y-61595305D01*
X172727868Y-61757377D01*
X173143243Y-61840000D01*
X173566757Y-61840000D01*
X173982132Y-61757377D01*
X174373407Y-61595305D01*
X174725545Y-61360014D01*
X175025014Y-61060545D01*
X175260305Y-60708407D01*
X175422377Y-60317132D01*
X175505000Y-59901757D01*
X175505000Y-59478243D01*
X175422377Y-59062868D01*
X175260305Y-58671593D01*
X175025014Y-58319455D01*
X174725545Y-58019986D01*
X174373407Y-57784695D01*
X173982132Y-57622623D01*
X173566757Y-57540000D01*
X173143243Y-57540000D01*
X172727868Y-57622623D01*
X172336593Y-57784695D01*
X171984455Y-58019986D01*
X171684986Y-58319455D01*
X171449695Y-58671593D01*
X171287623Y-59062868D01*
X171205000Y-59478243D01*
X168242257Y-59478243D01*
X168242257Y-58440000D01*
X168213295Y-58145949D01*
X168127524Y-57863198D01*
X167988238Y-57602613D01*
X167800792Y-57374208D01*
X167735000Y-57320214D01*
X167735000Y-57248242D01*
X167744676Y-57149999D01*
X167735000Y-57051756D01*
X167735000Y-57051747D01*
X167706062Y-56757931D01*
X167591699Y-56380930D01*
X167405985Y-56033483D01*
X167156056Y-55728944D01*
X167079740Y-55666313D01*
X165607257Y-54193831D01*
X165607257Y-53960000D01*
X171197743Y-53960000D01*
X171197743Y-55260000D01*
X171226705Y-55554051D01*
X171312476Y-55836802D01*
X171451762Y-56097387D01*
X171639208Y-56325792D01*
X171867613Y-56513238D01*
X172128198Y-56652524D01*
X172410949Y-56738295D01*
X172705000Y-56767257D01*
X174005000Y-56767257D01*
X174299051Y-56738295D01*
X174581802Y-56652524D01*
X174842387Y-56513238D01*
X175070792Y-56325792D01*
X175258238Y-56097387D01*
X175397524Y-55836802D01*
X175483295Y-55554051D01*
X175512257Y-55260000D01*
X175512257Y-53960000D01*
X175483295Y-53665949D01*
X175397524Y-53383198D01*
X175258238Y-53122613D01*
X175070792Y-52894208D01*
X174842387Y-52706762D01*
X174581802Y-52567476D01*
X174299051Y-52481705D01*
X174005000Y-52452743D01*
X172705000Y-52452743D01*
X172410949Y-52481705D01*
X172128198Y-52567476D01*
X171867613Y-52706762D01*
X171639208Y-52894208D01*
X171451762Y-53122613D01*
X171312476Y-53383198D01*
X171226705Y-53665949D01*
X171197743Y-53960000D01*
X165607257Y-53960000D01*
X165607257Y-53760000D01*
X165578295Y-53465949D01*
X165492524Y-53183198D01*
X165353238Y-52922613D01*
X165165792Y-52694208D01*
X164937387Y-52506762D01*
X164676802Y-52367476D01*
X164394051Y-52281705D01*
X164100000Y-52252743D01*
X162100000Y-52252743D01*
X161805949Y-52281705D01*
X161523198Y-52367476D01*
X161262613Y-52506762D01*
X161034208Y-52694208D01*
X160846762Y-52922613D01*
X160735399Y-53130957D01*
X160501517Y-52939015D01*
X160154070Y-52753301D01*
X159777069Y-52638938D01*
X159483253Y-52610000D01*
X159483243Y-52610000D01*
X159385000Y-52600324D01*
X159286757Y-52610000D01*
X156183446Y-52610000D01*
X155843657Y-52428379D01*
X155400680Y-52294003D01*
X155055442Y-52260000D01*
X154824558Y-52260000D01*
X154479320Y-52294003D01*
X154036343Y-52428379D01*
X153988543Y-52453929D01*
X153826802Y-52367476D01*
X153544051Y-52281705D01*
X153250000Y-52252743D01*
X151550000Y-52252743D01*
X151255949Y-52281705D01*
X150973198Y-52367476D01*
X150712613Y-52506762D01*
X150484208Y-52694208D01*
X150296762Y-52922613D01*
X150157476Y-53183198D01*
X150071705Y-53465949D01*
X150042743Y-53760000D01*
X150042743Y-55460000D01*
X150071705Y-55754051D01*
X150157476Y-56036802D01*
X150296762Y-56297387D01*
X150394598Y-56416602D01*
X150390324Y-56460000D01*
X150400001Y-56558252D01*
X150400001Y-56558253D01*
X150428939Y-56852069D01*
X150453411Y-56932743D01*
X150543301Y-57229069D01*
X150729015Y-57576516D01*
X150893657Y-57777132D01*
X150978945Y-57881056D01*
X151055261Y-57943687D01*
X151670000Y-58558426D01*
X151670001Y-70926572D01*
X149666574Y-72930000D01*
X145608427Y-72930000D01*
X144470000Y-71791574D01*
X144470000Y-71257887D01*
X144482613Y-71268238D01*
X144743198Y-71407524D01*
X145025949Y-71493295D01*
X145320000Y-71522257D01*
X146320000Y-71522257D01*
X146614051Y-71493295D01*
X146896802Y-71407524D01*
X147157387Y-71268238D01*
X147385792Y-71080792D01*
X147573238Y-70852387D01*
X147712524Y-70591802D01*
X147798295Y-70309051D01*
X147827257Y-70015000D01*
X147827257Y-68415000D01*
X147820000Y-68341320D01*
X147820000Y-65643680D01*
X147827257Y-65570000D01*
X147827257Y-63970000D01*
X147820000Y-63896320D01*
X147820000Y-63098242D01*
X147829676Y-62999999D01*
X147820000Y-62901756D01*
X147820000Y-62901747D01*
X147791062Y-62607931D01*
X147676699Y-62230930D01*
X147648402Y-62177989D01*
X147708784Y-62190000D01*
X148201240Y-62190000D01*
X148684235Y-62093926D01*
X149139206Y-61905471D01*
X149548669Y-61631876D01*
X149896888Y-61283657D01*
X150170483Y-60874194D01*
X150358938Y-60419223D01*
X150455012Y-59936228D01*
X150455012Y-59443772D01*
X150358938Y-58960777D01*
X150170483Y-58505806D01*
X149896888Y-58096343D01*
X149548669Y-57748124D01*
X149139206Y-57474529D01*
X148684235Y-57286074D01*
X148201240Y-57190000D01*
X147708784Y-57190000D01*
X147225789Y-57286074D01*
X146770818Y-57474529D01*
X146573809Y-57606167D01*
X146367387Y-57436762D01*
X146106802Y-57297476D01*
X145824051Y-57211705D01*
X145530000Y-57182743D01*
X144030000Y-57182743D01*
X143735949Y-57211705D01*
X143630000Y-57243844D01*
X143524051Y-57211705D01*
X143230000Y-57182743D01*
X141730000Y-57182743D01*
X141435949Y-57211705D01*
X141153198Y-57297476D01*
X140892613Y-57436762D01*
X140664208Y-57624208D01*
X140476762Y-57852613D01*
X140337476Y-58113198D01*
X140251705Y-58395949D01*
X140222743Y-58690000D01*
X136342257Y-58690000D01*
X136342257Y-57570000D01*
X136313295Y-57275949D01*
X136227524Y-56993198D01*
X136088238Y-56732613D01*
X135900792Y-56504208D01*
X135672387Y-56316762D01*
X135411802Y-56177476D01*
X135129051Y-56091705D01*
X134835000Y-56062743D01*
X133135000Y-56062743D01*
X132840949Y-56091705D01*
X132558198Y-56177476D01*
X132297613Y-56316762D01*
X132069208Y-56504208D01*
X131881762Y-56732613D01*
X131742476Y-56993198D01*
X131656705Y-57275949D01*
X131627743Y-57570000D01*
X131627743Y-59270000D01*
X131656705Y-59564051D01*
X131742476Y-59846802D01*
X131828929Y-60008543D01*
X131803379Y-60056343D01*
X131669003Y-60499320D01*
X131623630Y-60960000D01*
X121399435Y-60960000D01*
X121283238Y-60742613D01*
X121095792Y-60514208D01*
X120867387Y-60326762D01*
X120606802Y-60187476D01*
X120324051Y-60101705D01*
X120030000Y-60072743D01*
X118730000Y-60072743D01*
X118435949Y-60101705D01*
X118153198Y-60187476D01*
X117892613Y-60326762D01*
X117664208Y-60514208D01*
X117476762Y-60742613D01*
X117337476Y-61003198D01*
X117251705Y-61285949D01*
X117222743Y-61580000D01*
X107815000Y-61580000D01*
X107815000Y-56938243D01*
X117230000Y-56938243D01*
X117230000Y-57361757D01*
X117312623Y-57777132D01*
X117474695Y-58168407D01*
X117709986Y-58520545D01*
X118009455Y-58820014D01*
X118361593Y-59055305D01*
X118752868Y-59217377D01*
X119168243Y-59300000D01*
X119591757Y-59300000D01*
X120007132Y-59217377D01*
X120398407Y-59055305D01*
X120750545Y-58820014D01*
X121050014Y-58520545D01*
X121285305Y-58168407D01*
X121447377Y-57777132D01*
X121530000Y-57361757D01*
X121530000Y-56938243D01*
X121447377Y-56522868D01*
X121285305Y-56131593D01*
X121050014Y-55779455D01*
X120750545Y-55479986D01*
X120398407Y-55244695D01*
X120007132Y-55082623D01*
X119591757Y-55000000D01*
X119168243Y-55000000D01*
X118752868Y-55082623D01*
X118361593Y-55244695D01*
X118009455Y-55479986D01*
X117709986Y-55779455D01*
X117474695Y-56131593D01*
X117312623Y-56522868D01*
X117230000Y-56938243D01*
X107815000Y-56938243D01*
X107815000Y-53340000D01*
X107805393Y-53242455D01*
X107776940Y-53148658D01*
X107730735Y-53062215D01*
X107668553Y-52986447D01*
X107592785Y-52924265D01*
X107506342Y-52878060D01*
X107412545Y-52849607D01*
X107315000Y-52840000D01*
X103381507Y-52840000D01*
X103376320Y-52833680D01*
X102995645Y-52521269D01*
X102561337Y-52289126D01*
X102090085Y-52146174D01*
X101599999Y-52097905D01*
X101109914Y-52146174D01*
X100638662Y-52289126D01*
X100204354Y-52521269D01*
X99919074Y-52755392D01*
X93046724Y-59627743D01*
X90703000Y-59627743D01*
X90629320Y-59635000D01*
X86276680Y-59635000D01*
X86203000Y-59627743D01*
X80203000Y-59627743D01*
X79908949Y-59656705D01*
X79655000Y-59733739D01*
X79655000Y-51715000D01*
X139239964Y-51715000D01*
X139187476Y-51813198D01*
M02*
