G04 #@! TF.GenerationSoftware,KiCad,Pcbnew,(5.1.0)-1*
G04 #@! TF.CreationDate,2019-04-10T15:15:50-05:00*
G04 #@! TF.ProjectId,controlLED,636f6e74-726f-46c4-9c45-442e6b696361,rev?*
G04 #@! TF.SameCoordinates,Original*
G04 #@! TF.FileFunction,Soldermask,Bot*
G04 #@! TF.FilePolarity,Negative*
%FSLAX46Y46*%
G04 Gerber Fmt 4.6, Leading zero omitted, Abs format (unit mm)*
G04 Created by KiCad (PCBNEW (5.1.0)-1) date 2019-04-10 15:15:50*
%MOMM*%
%LPD*%
G04 APERTURE LIST*
%ADD10R,3.500000X3.500000*%
%ADD11R,1.700000X1.700000*%
%ADD12O,1.700000X1.700000*%
%ADD13C,1.300000*%
%ADD14R,1.300000X1.300000*%
%ADD15C,1.524000*%
%ADD16R,2.000000X2.500000*%
G04 APERTURE END LIST*
D10*
X200660000Y-115570000D03*
X200660000Y-121570000D03*
X205360000Y-118570000D03*
D11*
X133985000Y-58420000D03*
D12*
X133985000Y-60960000D03*
X133985000Y-63420000D03*
X133985000Y-66040000D03*
X133985000Y-68580000D03*
X133985000Y-71120000D03*
X133985000Y-73660000D03*
X133985000Y-76200000D03*
X133985000Y-78740000D03*
X133985000Y-81280000D03*
X133985000Y-83820000D03*
X133985000Y-86360000D03*
X133985000Y-88900000D03*
X133985000Y-91440000D03*
X133985000Y-93980000D03*
X133985000Y-96520000D03*
X133985000Y-98740000D03*
X133985000Y-101600000D03*
X133985000Y-104140000D03*
X133985000Y-106680000D03*
X156845000Y-58420000D03*
X156845000Y-60960000D03*
X156845000Y-63420000D03*
X156805000Y-65960000D03*
X156845000Y-68580000D03*
X156845000Y-71120000D03*
X156845000Y-73660000D03*
X156845000Y-76200000D03*
X156845000Y-78740000D03*
X156845000Y-81280000D03*
X156845000Y-83820000D03*
X156845000Y-86360000D03*
X156845000Y-88900000D03*
X156845000Y-91440000D03*
X156845000Y-93980000D03*
X156845000Y-96520000D03*
X156845000Y-99060000D03*
X156845000Y-101600000D03*
X156845000Y-104140000D03*
X156845000Y-106680000D03*
D13*
X119380000Y-92710000D03*
D14*
X119380000Y-100330000D03*
D13*
X101600000Y-92710000D03*
X101600000Y-100330000D03*
X119380000Y-95250000D03*
X173355000Y-62230000D03*
D14*
X173355000Y-54610000D03*
D13*
X191135000Y-62230000D03*
X191135000Y-54610000D03*
X173355000Y-59690000D03*
D15*
X174625000Y-111125000D03*
X174625000Y-113125000D03*
X174625000Y-115125000D03*
X174625000Y-117125000D03*
X114935000Y-111125000D03*
X114935000Y-113125000D03*
X114935000Y-115125000D03*
X114935000Y-117125000D03*
X165100000Y-111125000D03*
X165100000Y-113125000D03*
X165100000Y-115125000D03*
X165100000Y-117125000D03*
X123190000Y-111125000D03*
X123190000Y-113125000D03*
X123190000Y-115125000D03*
X123190000Y-117125000D03*
X97155000Y-111125000D03*
X97155000Y-113125000D03*
X97155000Y-115125000D03*
X97155000Y-117125000D03*
X106235000Y-111125000D03*
X106235000Y-113125000D03*
X106235000Y-115125000D03*
X106235000Y-117125000D03*
X87630000Y-107315000D03*
X87630000Y-109315000D03*
X87630000Y-111315000D03*
X87630000Y-113315000D03*
X87630000Y-115315000D03*
X87630000Y-117315000D03*
D11*
X152400000Y-54610000D03*
D12*
X154940000Y-54610000D03*
D13*
X173355000Y-74930000D03*
D14*
X173355000Y-67310000D03*
D13*
X191135000Y-74930000D03*
X191135000Y-67310000D03*
X173355000Y-72390000D03*
X173355000Y-87630000D03*
D14*
X173355000Y-80010000D03*
D13*
X191135000Y-87630000D03*
X191135000Y-80010000D03*
X173355000Y-85090000D03*
X173355000Y-100330000D03*
D14*
X173355000Y-92710000D03*
D13*
X191135000Y-100330000D03*
X191135000Y-92710000D03*
X173355000Y-97790000D03*
X119380000Y-79756000D03*
D14*
X119380000Y-87376000D03*
D13*
X101600000Y-79756000D03*
X101600000Y-87376000D03*
X119380000Y-82296000D03*
X119380000Y-67310000D03*
D14*
X119380000Y-74930000D03*
D13*
X101600000Y-67310000D03*
X101600000Y-74930000D03*
X119380000Y-69850000D03*
X119380000Y-54610000D03*
D14*
X119380000Y-62230000D03*
D13*
X101600000Y-54610000D03*
X101600000Y-62230000D03*
X119380000Y-57150000D03*
D16*
X165830000Y-65405000D03*
X161830000Y-65405000D03*
X165830000Y-71120000D03*
X161830000Y-71120000D03*
X165830000Y-76835000D03*
X161830000Y-76835000D03*
X165830000Y-82550000D03*
X161830000Y-82550000D03*
X125000000Y-82550000D03*
X129000000Y-82550000D03*
X125095000Y-76835000D03*
X129095000Y-76835000D03*
X125095000Y-71120000D03*
X129095000Y-71120000D03*
X125095000Y-65405000D03*
X129095000Y-65405000D03*
M02*
