G04 #@! TF.GenerationSoftware,KiCad,Pcbnew,(5.1.0)-1*
G04 #@! TF.CreationDate,2019-04-10T15:15:50-05:00*
G04 #@! TF.ProjectId,controlLED,636f6e74-726f-46c4-9c45-442e6b696361,rev?*
G04 #@! TF.SameCoordinates,Original*
G04 #@! TF.FileFunction,Soldermask,Top*
G04 #@! TF.FilePolarity,Negative*
%FSLAX46Y46*%
G04 Gerber Fmt 4.6, Leading zero omitted, Abs format (unit mm)*
G04 Created by KiCad (PCBNEW (5.1.0)-1) date 2019-04-10 15:15:50*
%MOMM*%
%LPD*%
G04 APERTURE LIST*
%ADD10R,3.500000X3.500000*%
%ADD11R,1.700000X1.700000*%
%ADD12O,1.700000X1.700000*%
%ADD13R,1.000000X1.600000*%
%ADD14C,1.300000*%
%ADD15R,1.300000X1.300000*%
%ADD16R,3.800000X2.000000*%
%ADD17R,1.500000X2.000000*%
%ADD18R,1.600000X1.000000*%
%ADD19R,2.000000X1.700000*%
%ADD20R,3.500000X2.000000*%
%ADD21R,6.000000X2.000000*%
%ADD22R,2.000000X3.500000*%
%ADD23R,2.000000X6.000000*%
%ADD24C,1.524000*%
%ADD25R,2.000000X2.500000*%
G04 APERTURE END LIST*
D10*
X200660000Y-115570000D03*
X200660000Y-121570000D03*
X205360000Y-118570000D03*
D11*
X133985000Y-58420000D03*
D12*
X133985000Y-60960000D03*
X133985000Y-63420000D03*
X133985000Y-66040000D03*
X133985000Y-68580000D03*
X133985000Y-71120000D03*
X133985000Y-73660000D03*
X133985000Y-76200000D03*
X133985000Y-78740000D03*
X133985000Y-81280000D03*
X133985000Y-83820000D03*
X133985000Y-86360000D03*
X133985000Y-88900000D03*
X133985000Y-91440000D03*
X133985000Y-93980000D03*
X133985000Y-96520000D03*
X133985000Y-98740000D03*
X133985000Y-101600000D03*
X133985000Y-104140000D03*
X133985000Y-106680000D03*
X156845000Y-58420000D03*
X156845000Y-60960000D03*
X156845000Y-63420000D03*
X156805000Y-65960000D03*
X156845000Y-68580000D03*
X156845000Y-71120000D03*
X156845000Y-73660000D03*
X156845000Y-76200000D03*
X156845000Y-78740000D03*
X156845000Y-81280000D03*
X156845000Y-83820000D03*
X156845000Y-86360000D03*
X156845000Y-88900000D03*
X156845000Y-91440000D03*
X156845000Y-93980000D03*
X156845000Y-96520000D03*
X156845000Y-99060000D03*
X156845000Y-101600000D03*
X156845000Y-104140000D03*
X156845000Y-106680000D03*
D13*
X142470000Y-69215000D03*
X139470000Y-69215000D03*
D14*
X119380000Y-92710000D03*
D15*
X119380000Y-100330000D03*
D14*
X101600000Y-92710000D03*
X101600000Y-100330000D03*
X119380000Y-95250000D03*
X173355000Y-62230000D03*
D15*
X173355000Y-54610000D03*
D14*
X191135000Y-62230000D03*
X191135000Y-54610000D03*
X173355000Y-59690000D03*
D16*
X147320000Y-119990000D03*
D17*
X147320000Y-113690000D03*
X145020000Y-113690000D03*
X149620000Y-113690000D03*
D13*
X145820000Y-69215000D03*
X148820000Y-69215000D03*
X145820000Y-64770000D03*
X148820000Y-64770000D03*
X142470000Y-64770000D03*
X139470000Y-64770000D03*
D18*
X134620000Y-114070000D03*
X134620000Y-117070000D03*
X139700000Y-114070000D03*
X139700000Y-117070000D03*
D13*
X145820000Y-101600000D03*
X148820000Y-101600000D03*
X145820000Y-106680000D03*
X148820000Y-106680000D03*
D19*
X167100000Y-54610000D03*
X163100000Y-54610000D03*
D20*
X199012000Y-62135000D03*
D21*
X208262000Y-62135000D03*
D20*
X199012000Y-66135000D03*
D21*
X208262000Y-66135000D03*
D20*
X199012000Y-71025000D03*
D21*
X208262000Y-71025000D03*
D20*
X199012000Y-75025000D03*
D21*
X208262000Y-75025000D03*
D20*
X199012000Y-79915000D03*
D21*
X208262000Y-79915000D03*
D20*
X199012000Y-83915000D03*
D21*
X208262000Y-83915000D03*
D20*
X199012000Y-89440000D03*
D21*
X208262000Y-89440000D03*
D20*
X199012000Y-93440000D03*
D21*
X208262000Y-93440000D03*
D20*
X92453000Y-93440000D03*
D21*
X83203000Y-93440000D03*
D20*
X92453000Y-89440000D03*
D21*
X83203000Y-89440000D03*
D20*
X92435000Y-84010000D03*
D21*
X83185000Y-84010000D03*
D20*
X92435000Y-80010000D03*
D21*
X83185000Y-80010000D03*
D20*
X92453000Y-75025000D03*
D21*
X83203000Y-75025000D03*
D20*
X92453000Y-71025000D03*
D21*
X83203000Y-71025000D03*
D22*
X188690000Y-113287000D03*
D23*
X188690000Y-122537000D03*
D22*
X184690000Y-113287000D03*
D23*
X184690000Y-122537000D03*
D24*
X174625000Y-111125000D03*
X174625000Y-113125000D03*
X174625000Y-115125000D03*
X174625000Y-117125000D03*
X114935000Y-111125000D03*
X114935000Y-113125000D03*
X114935000Y-115125000D03*
X114935000Y-117125000D03*
X165100000Y-111125000D03*
X165100000Y-113125000D03*
X165100000Y-115125000D03*
X165100000Y-117125000D03*
X123190000Y-111125000D03*
X123190000Y-113125000D03*
X123190000Y-115125000D03*
X123190000Y-117125000D03*
X97155000Y-111125000D03*
X97155000Y-113125000D03*
X97155000Y-115125000D03*
X97155000Y-117125000D03*
X106235000Y-111125000D03*
X106235000Y-113125000D03*
X106235000Y-115125000D03*
X106235000Y-117125000D03*
X87630000Y-107315000D03*
X87630000Y-109315000D03*
X87630000Y-111315000D03*
X87630000Y-113315000D03*
X87630000Y-115315000D03*
X87630000Y-117315000D03*
D11*
X152400000Y-54610000D03*
D12*
X154940000Y-54610000D03*
D14*
X173355000Y-74930000D03*
D15*
X173355000Y-67310000D03*
D14*
X191135000Y-74930000D03*
X191135000Y-67310000D03*
X173355000Y-72390000D03*
X173355000Y-87630000D03*
D15*
X173355000Y-80010000D03*
D14*
X191135000Y-87630000D03*
X191135000Y-80010000D03*
X173355000Y-85090000D03*
X173355000Y-100330000D03*
D15*
X173355000Y-92710000D03*
D14*
X191135000Y-100330000D03*
X191135000Y-92710000D03*
X173355000Y-97790000D03*
X119380000Y-79756000D03*
D15*
X119380000Y-87376000D03*
D14*
X101600000Y-79756000D03*
X101600000Y-87376000D03*
X119380000Y-82296000D03*
X119380000Y-67310000D03*
D15*
X119380000Y-74930000D03*
D14*
X101600000Y-67310000D03*
X101600000Y-74930000D03*
X119380000Y-69850000D03*
X119380000Y-54610000D03*
D15*
X119380000Y-62230000D03*
D14*
X101600000Y-54610000D03*
X101600000Y-62230000D03*
X119380000Y-57150000D03*
D25*
X165735000Y-59690000D03*
X161735000Y-59690000D03*
D16*
X142480000Y-53390000D03*
D17*
X142480000Y-59690000D03*
X144780000Y-59690000D03*
X140180000Y-59690000D03*
D20*
X92453000Y-66135000D03*
D21*
X83203000Y-66135000D03*
D20*
X92453000Y-62135000D03*
D21*
X83203000Y-62135000D03*
M02*
